<?xml version="1.0" encoding="UTF-8" standalone="no"?>
<!DOCTYPE svg PUBLIC "-//W3C//DTD SVG 1.1//EN"
 "http://www.w3.org/Graphics/SVG/1.1/DTD/svg11.dtd">
<!-- Generated by graphviz version 14.1.3 (20260303.0454)
 -->
<!-- Title: InjectionDependencies Pages: 1 -->
<svg width="2060pt" height="2087pt"
 viewBox="0.00 0.00 2060.00 2087.00" xmlns="http://www.w3.org/2000/svg" xmlns:xlink="http://www.w3.org/1999/xlink">
<g id="graph0" class="graph" transform="scale(1 1) rotate(0) translate(28.8 2058.2)">
<title>InjectionDependencies</title>
<polygon fill="#fcfcfb" stroke="none" points="-28.8,28.8 -28.8,-2058.2 2031.15,-2058.2 2031.15,28.8 -28.8,28.8"/>
<text xml:space="preserve" text-anchor="middle" x="1001.18" y="-2012.8" font-family="Times,serif" font-size="14.00">Class Injection Dependencies</text>
<text xml:space="preserve" text-anchor="middle" x="1001.18" y="-1996" font-family="Times,serif" font-size="14.00">Nodes are fully qualified class and interface names.</text>
<text xml:space="preserve" text-anchor="middle" x="1001.18" y="-1979.2" font-family="Times,serif" font-size="14.00">Solid edges = declared injection. Dashed edges = runtime wiring.</text>
<g id="clust1" class="cluster">
<title>cluster__thoth_agents</title>
<path fill="#fcfcfb" stroke="#d1d5db" d="M20,-8C20,-8 1005.38,-8 1005.38,-8 1011.38,-8 1017.38,-14 1017.38,-20 1017.38,-20 1017.38,-683 1017.38,-683 1017.38,-689 1011.38,-695 1005.38,-695 1005.38,-695 20,-695 20,-695 14,-695 8,-689 8,-683 8,-683 8,-20 8,-20 8,-14 14,-8 20,-8"/>
<text xml:space="preserve" text-anchor="middle" x="512.69" y="-678.4" font-family="Times,serif" font-size="14.00">@thoth/agents</text>
</g>
<g id="clust2" class="cluster">
<title>cluster__thoth_contracts</title>
<path fill="#fcfcfb" stroke="#d1d5db" d="M69.58,-703C69.58,-703 405.51,-703 405.51,-703 411.51,-703 417.51,-709 417.51,-715 417.51,-715 417.51,-1439 417.51,-1439 417.51,-1445 411.51,-1451 405.51,-1451 405.51,-1451 69.58,-1451 69.58,-1451 63.58,-1451 57.58,-1445 57.58,-1439 57.58,-1439 57.58,-715 57.58,-715 57.58,-709 63.58,-703 69.58,-703"/>
<text xml:space="preserve" text-anchor="middle" x="237.55" y="-1434.4" font-family="Times,serif" font-size="14.00">@thoth/contracts</text>
</g>
<g id="clust3" class="cluster">
<title>cluster__thoth_entities</title>
<path fill="#fcfcfb" stroke="#d1d5db" d="M611.09,-703C611.09,-703 1982.35,-703 1982.35,-703 1988.35,-703 1994.35,-709 1994.35,-715 1994.35,-715 1994.35,-1683 1994.35,-1683 1994.35,-1689 1988.35,-1695 1982.35,-1695 1982.35,-1695 611.09,-1695 611.09,-1695 605.09,-1695 599.09,-1689 599.09,-1683 599.09,-1683 599.09,-715 599.09,-715 599.09,-709 605.09,-703 611.09,-703"/>
<text xml:space="preserve" text-anchor="middle" x="1296.72" y="-1678.4" font-family="Times,serif" font-size="14.00">@thoth/entities</text>
</g>
<g id="clust4" class="cluster">
<title>cluster_scripts</title>
<path fill="#fcfcfb" stroke="#d1d5db" d="M118.63,-1459C118.63,-1459 356.47,-1459 356.47,-1459 362.47,-1459 368.47,-1465 368.47,-1471 368.47,-1471 368.47,-1951 368.47,-1951 368.47,-1957 362.47,-1963 356.47,-1963 356.47,-1963 118.63,-1963 118.63,-1963 112.63,-1963 106.63,-1957 106.63,-1951 106.63,-1951 106.63,-1471 106.63,-1471 106.63,-1465 112.63,-1459 118.63,-1459"/>
<text xml:space="preserve" text-anchor="middle" x="237.55" y="-1946.4" font-family="Times,serif" font-size="14.00">scripts</text>
</g>
<g id="clust5" class="cluster">
<title>cluster_external</title>
<path fill="#fcfcfb" stroke="#d1d5db" d="M1180.67,-69C1180.67,-69 1232.49,-69 1232.49,-69 1238.49,-69 1244.49,-75 1244.49,-81 1244.49,-81 1244.49,-134 1244.49,-134 1244.49,-140 1238.49,-146 1232.49,-146 1232.49,-146 1180.67,-146 1180.67,-146 1174.67,-146 1168.67,-140 1168.67,-134 1168.67,-134 1168.67,-81 1168.67,-81 1168.67,-75 1174.67,-69 1180.67,-69"/>
<text xml:space="preserve" text-anchor="middle" x="1206.58" y="-129.4" font-family="Times,serif" font-size="14.00">external</text>
</g>
<!-- _thoth_agents_conversations_application_conversations_service_ConversationsService -->
<g id="node1" class="node">
<title>_thoth_agents_conversations_application_conversations_service_ConversationsService</title>
<path fill="#ffffff" stroke="#94a3b8" d="M412.51,-52C412.51,-52 62.58,-52 62.58,-52 56.58,-52 50.58,-46 50.58,-40 50.58,-40 50.58,-28 50.58,-28 50.58,-22 56.58,-16 62.58,-16 62.58,-16 412.51,-16 412.51,-16 418.51,-16 424.51,-22 424.51,-28 424.51,-28 424.51,-40 424.51,-40 424.51,-46 418.51,-52 412.51,-52"/>
<text xml:space="preserve" text-anchor="middle" x="237.55" y="-31" font-family="Menlo" font-size="10.00">@thoth/agents::conversations/application/conversations&#45;service::ConversationsService</text>
</g>
<!-- _thoth_agents_conversations_outbound_blob_r2_blob_store_R2BlobStore -->
<g id="node7" class="node">
<title>_thoth_agents_conversations_outbound_blob_r2_blob_store_R2BlobStore</title>
<path fill="#ffffff" stroke="#94a3b8" d="M910.45,-52C910.45,-52 616.02,-52 616.02,-52 610.02,-52 604.02,-46 604.02,-40 604.02,-40 604.02,-28 604.02,-28 604.02,-22 610.02,-16 616.02,-16 616.02,-16 910.45,-16 910.45,-16 916.45,-16 922.45,-22 922.45,-28 922.45,-28 922.45,-40 922.45,-40 922.45,-46 916.45,-52 910.45,-52"/>
<text xml:space="preserve" text-anchor="middle" x="763.24" y="-31" font-family="Menlo" font-size="10.00">@thoth/agents::conversations/outbound/blob/r2&#45;blob&#45;store::R2BlobStore</text>
</g>
<!-- _thoth_agents_conversations_application_conversations_service_ConversationsService&#45;&gt;_thoth_agents_conversations_outbound_blob_r2_blob_store_R2BlobStore -->
<g id="edge13" class="edge">
<title>_thoth_agents_conversations_application_conversations_service_ConversationsService&#45;&gt;_thoth_agents_conversations_outbound_blob_r2_blob_store_R2BlobStore</title>
<path fill="none" stroke="#2563eb" stroke-width="1.2" stroke-dasharray="5,2" d="M424.74,-23.2C424.74,-23.2 594.97,-23.2 594.97,-23.2"/>
<polygon fill="#2563eb" stroke="#2563eb" stroke-width="1.2" points="594.97,-25.65 601.97,-23.2 594.97,-20.75 594.97,-25.65"/>
</g>
<!-- _thoth_agents_conversations_outbound_postgres_postgres_conversation_repository_PostgresConversationRepository -->
<g id="node12" class="node">
<title>_thoth_agents_conversations_outbound_postgres_postgres_conversation_repository_PostgresConversationRepository</title>
<path fill="#ffffff" stroke="#94a3b8" d="M997.38,-113C997.38,-113 529.09,-113 529.09,-113 523.09,-113 517.09,-107 517.09,-101 517.09,-101 517.09,-89 517.09,-89 517.09,-83 523.09,-77 529.09,-77 529.09,-77 997.38,-77 997.38,-77 1003.38,-77 1009.38,-83 1009.38,-89 1009.38,-89 1009.38,-101 1009.38,-101 1009.38,-107 1003.38,-113 997.38,-113"/>
<text xml:space="preserve" text-anchor="middle" x="763.24" y="-92" font-family="Menlo" font-size="10.00">@thoth/agents::conversations/outbound/postgres/postgres&#45;conversation&#45;repository::PostgresConversationRepository</text>
</g>
<!-- _thoth_agents_conversations_application_conversations_service_ConversationsService&#45;&gt;_thoth_agents_conversations_outbound_postgres_postgres_conversation_repository_PostgresConversationRepository -->
<g id="edge14" class="edge">
<title>_thoth_agents_conversations_application_conversations_service_ConversationsService&#45;&gt;_thoth_agents_conversations_outbound_postgres_postgres_conversation_repository_PostgresConversationRepository</title>
<path fill="none" stroke="#2563eb" stroke-width="1.2" stroke-dasharray="5,2" d="M424.86,-30.4C496.06,-30.4 560.35,-30.4 560.35,-30.4 560.35,-30.4 560.35,-67.84 560.35,-67.84"/>
<polygon fill="#2563eb" stroke="#2563eb" stroke-width="1.2" points="557.9,-67.84 560.35,-74.84 562.8,-67.84 557.9,-67.84"/>
</g>
<!-- _thoth_entities_ports_BlobStore -->
<g id="node37" class="node">
<title>_thoth_entities_ports_BlobStore</title>
<path fill="#f8fafc" stroke="#94a3b8" d="M830.74,-1113C830.74,-1113 695.73,-1113 695.73,-1113 689.73,-1113 683.73,-1107 683.73,-1101 683.73,-1101 683.73,-1089 683.73,-1089 683.73,-1083 689.73,-1077 695.73,-1077 695.73,-1077 830.74,-1077 830.74,-1077 836.74,-1077 842.74,-1083 842.74,-1089 842.74,-1089 842.74,-1101 842.74,-1101 842.74,-1107 836.74,-1113 830.74,-1113"/>
<text xml:space="preserve" text-anchor="middle" x="763.24" y="-1092" font-family="Menlo" font-size="10.00">@thoth/entities::ports::BlobStore</text>
</g>
<!-- _thoth_agents_conversations_application_conversations_service_ConversationsService&#45;&gt;_thoth_entities_ports_BlobStore -->
<g id="edge1" class="edge">
<title>_thoth_agents_conversations_application_conversations_service_ConversationsService&#45;&gt;_thoth_entities_ports_BlobStore</title>
<path fill="none" stroke="#64748b" stroke-width="1.2" d="M424.98,-37.6C465.95,-37.6 497.35,-37.6 497.35,-37.6 497.35,-37.6 497.35,-1095 497.35,-1095 497.35,-1095 674.65,-1095 674.65,-1095"/>
<polygon fill="#64748b" stroke="#64748b" stroke-width="1.2" points="674.65,-1097.45 681.65,-1095 674.65,-1092.55 674.65,-1097.45"/>
</g>
<!-- _thoth_entities_ports_ConversationRepository -->
<g id="node38" class="node">
<title>_thoth_entities_ports_ConversationRepository</title>
<path fill="#f8fafc" stroke="#94a3b8" d="M859.07,-1174C859.07,-1174 667.4,-1174 667.4,-1174 661.4,-1174 655.4,-1168 655.4,-1162 655.4,-1162 655.4,-1150 655.4,-1150 655.4,-1144 661.4,-1138 667.4,-1138 667.4,-1138 859.07,-1138 859.07,-1138 865.07,-1138 871.07,-1144 871.07,-1150 871.07,-1150 871.07,-1162 871.07,-1162 871.07,-1168 865.07,-1174 859.07,-1174"/>
<text xml:space="preserve" text-anchor="middle" x="763.24" y="-1153" font-family="Menlo" font-size="10.00">@thoth/entities::ports::ConversationRepository</text>
</g>
<!-- _thoth_agents_conversations_application_conversations_service_ConversationsService&#45;&gt;_thoth_entities_ports_ConversationRepository -->
<g id="edge2" class="edge">
<title>_thoth_agents_conversations_application_conversations_service_ConversationsService&#45;&gt;_thoth_entities_ports_ConversationRepository</title>
<path fill="none" stroke="#64748b" stroke-width="1.2" d="M424.91,-44.8C456,-44.8 478.35,-44.8 478.35,-44.8 478.35,-44.8 478.35,-1156 478.35,-1156 478.35,-1156 646.31,-1156 646.31,-1156"/>
<polygon fill="#64748b" stroke="#64748b" stroke-width="1.2" points="646.31,-1158.45 653.31,-1156 646.31,-1153.55 646.31,-1158.45"/>
</g>
<!-- _thoth_agents_conversations_application_conversations_service_test_InMemoryConversationRepository -->
<g id="node2" class="node">
<title>_thoth_agents_conversations_application_conversations_service_test_InMemoryConversationRepository</title>
<path fill="#ffffff" stroke="#94a3b8" d="M447.09,-113C447.09,-113 28,-113 28,-113 22,-113 16,-107 16,-101 16,-101 16,-89 16,-89 16,-83 22,-77 28,-77 28,-77 447.09,-77 447.09,-77 453.09,-77 459.09,-83 459.09,-89 459.09,-89 459.09,-101 459.09,-101 459.09,-107 453.09,-113 447.09,-113"/>
<text xml:space="preserve" text-anchor="middle" x="237.55" y="-92" font-family="Menlo" font-size="10.00">@thoth/agents::conversations/application/conversations&#45;service.test::InMemoryConversationRepository</text>
</g>
<!-- _thoth_agents_conversations_inbound_http_conversations_controller_CreateConversationBody -->
<g id="node3" class="node">
<title>_thoth_agents_conversations_inbound_http_conversations_controller_CreateConversationBody</title>
<path fill="#f8fafc" stroke="#94a3b8" d="M428.07,-174C428.07,-174 47.02,-174 47.02,-174 41.02,-174 35.02,-168 35.02,-162 35.02,-162 35.02,-150 35.02,-150 35.02,-144 41.02,-138 47.02,-138 47.02,-138 428.07,-138 428.07,-138 434.07,-138 440.07,-144 440.07,-150 440.07,-150 440.07,-162 440.07,-162 440.07,-168 434.07,-174 428.07,-174"/>
<text xml:space="preserve" text-anchor="middle" x="237.55" y="-153" font-family="Menlo" font-size="10.00">@thoth/agents::conversations/inbound/http/conversations&#45;controller::CreateConversationBody</text>
</g>
<!-- _thoth_agents_conversations_inbound_http_conversations_controller_JsonMessageBody -->
<g id="node4" class="node">
<title>_thoth_agents_conversations_inbound_http_conversations_controller_JsonMessageBody</title>
<path fill="#f8fafc" stroke="#94a3b8" d="M414.75,-235C414.75,-235 60.34,-235 60.34,-235 54.34,-235 48.34,-229 48.34,-223 48.34,-223 48.34,-211 48.34,-211 48.34,-205 54.34,-199 60.34,-199 60.34,-199 414.75,-199 414.75,-199 420.75,-199 426.75,-205 426.75,-211 426.75,-211 426.75,-223 426.75,-223 426.75,-229 420.75,-235 414.75,-235"/>
<text xml:space="preserve" text-anchor="middle" x="237.55" y="-214" font-family="Menlo" font-size="10.00">@thoth/agents::conversations/inbound/http/conversations&#45;controller::JsonMessageBody</text>
</g>
<!-- _thoth_agents_conversations_inbound_http_conversations_controller_test_FakeConversationsService -->
<g id="node5" class="node">
<title>_thoth_agents_conversations_inbound_http_conversations_controller_test_FakeConversationsService</title>
<path fill="#ffffff" stroke="#94a3b8" d="M439.04,-296C439.04,-296 36.05,-296 36.05,-296 30.05,-296 24.05,-290 24.05,-284 24.05,-284 24.05,-272 24.05,-272 24.05,-266 30.05,-260 36.05,-260 36.05,-260 439.04,-260 439.04,-260 445.04,-260 451.04,-266 451.04,-272 451.04,-272 451.04,-284 451.04,-284 451.04,-290 445.04,-296 439.04,-296"/>
<text xml:space="preserve" text-anchor="middle" x="237.55" y="-275" font-family="Menlo" font-size="10.00">@thoth/agents::conversations/inbound/http/conversations&#45;controller.test::FakeConversationsService</text>
</g>
<!-- _thoth_agents_conversations_inbound_http_request_validation_error_RequestValidationError -->
<g id="node6" class="node">
<title>_thoth_agents_conversations_inbound_http_request_validation_error_RequestValidationError</title>
<path fill="#ffffff" stroke="#94a3b8" d="M424.18,-357C424.18,-357 50.92,-357 50.92,-357 44.92,-357 38.92,-351 38.92,-345 38.92,-345 38.92,-333 38.92,-333 38.92,-327 44.92,-321 50.92,-321 50.92,-321 424.18,-321 424.18,-321 430.18,-321 436.18,-327 436.18,-333 436.18,-333 436.18,-345 436.18,-345 436.18,-351 430.18,-357 424.18,-357"/>
<text xml:space="preserve" text-anchor="middle" x="237.55" y="-336" font-family="Menlo" font-size="10.00">@thoth/agents::conversations/inbound/http/request&#45;validation&#45;error::RequestValidationError</text>
</g>
<!-- _thoth_agents_conversations_outbound_blob_r2_blob_store_SignedRequestInput -->
<g id="node8" class="node">
<title>_thoth_agents_conversations_outbound_blob_r2_blob_store_SignedRequestInput</title>
<path fill="#f8fafc" stroke="#94a3b8" d="M399.2,-418C399.2,-418 75.89,-418 75.89,-418 69.89,-418 63.89,-412 63.89,-406 63.89,-406 63.89,-394 63.89,-394 63.89,-388 69.89,-382 75.89,-382 75.89,-382 399.2,-382 399.2,-382 405.2,-382 411.2,-388 411.2,-394 411.2,-394 411.2,-406 411.2,-406 411.2,-412 405.2,-418 399.2,-418"/>
<text xml:space="preserve" text-anchor="middle" x="237.55" y="-397" font-family="Menlo" font-size="10.00">@thoth/agents::conversations/outbound/blob/r2&#45;blob&#45;store::SignedRequestInput</text>
</g>
<!-- _thoth_agents_conversations_outbound_postgres_postgres_conversation_repository_AttachmentRow -->
<g id="node9" class="node">
<title>_thoth_agents_conversations_outbound_postgres_postgres_conversation_repository_AttachmentRow</title>
<path fill="#f8fafc" stroke="#94a3b8" d="M438.91,-479C438.91,-479 36.18,-479 36.18,-479 30.18,-479 24.18,-473 24.18,-467 24.18,-467 24.18,-455 24.18,-455 24.18,-449 30.18,-443 36.18,-443 36.18,-443 438.91,-443 438.91,-443 444.91,-443 450.91,-449 450.91,-455 450.91,-455 450.91,-467 450.91,-467 450.91,-473 444.91,-479 438.91,-479"/>
<text xml:space="preserve" text-anchor="middle" x="237.55" y="-458" font-family="Menlo" font-size="10.00">@thoth/agents::conversations/outbound/postgres/postgres&#45;conversation&#45;repository::AttachmentRow</text>
</g>
<!-- _thoth_agents_conversations_outbound_postgres_postgres_conversation_repository_ConversationRow -->
<g id="node10" class="node">
<title>_thoth_agents_conversations_outbound_postgres_postgres_conversation_repository_ConversationRow</title>
<path fill="#f8fafc" stroke="#94a3b8" d="M442.25,-540C442.25,-540 32.85,-540 32.85,-540 26.85,-540 20.85,-534 20.85,-528 20.85,-528 20.85,-516 20.85,-516 20.85,-510 26.85,-504 32.85,-504 32.85,-504 442.25,-504 442.25,-504 448.25,-504 454.25,-510 454.25,-516 454.25,-516 454.25,-528 454.25,-528 454.25,-534 448.25,-540 442.25,-540"/>
<text xml:space="preserve" text-anchor="middle" x="237.55" y="-519" font-family="Menlo" font-size="10.00">@thoth/agents::conversations/outbound/postgres/postgres&#45;conversation&#45;repository::ConversationRow</text>
</g>
<!-- _thoth_agents_conversations_outbound_postgres_postgres_conversation_repository_MessageRow -->
<g id="node11" class="node">
<title>_thoth_agents_conversations_outbound_postgres_postgres_conversation_repository_MessageRow</title>
<path fill="#f8fafc" stroke="#94a3b8" d="M433.08,-601C433.08,-601 42.01,-601 42.01,-601 36.01,-601 30.01,-595 30.01,-589 30.01,-589 30.01,-577 30.01,-577 30.01,-571 36.01,-565 42.01,-565 42.01,-565 433.08,-565 433.08,-565 439.08,-565 445.08,-571 445.08,-577 445.08,-577 445.08,-589 445.08,-589 445.08,-595 439.08,-601 433.08,-601"/>
<text xml:space="preserve" text-anchor="middle" x="237.55" y="-580" font-family="Menlo" font-size="10.00">@thoth/agents::conversations/outbound/postgres/postgres&#45;conversation&#45;repository::MessageRow</text>
</g>
<!-- pg_Pool -->
<g id="node59" class="node">
<title>pg_Pool</title>
<path fill="#f1f5f9" stroke="#94a3b8" d="M1224.49,-113C1224.49,-113 1188.67,-113 1188.67,-113 1182.67,-113 1176.67,-107 1176.67,-101 1176.67,-101 1176.67,-89 1176.67,-89 1176.67,-83 1182.67,-77 1188.67,-77 1188.67,-77 1224.49,-77 1224.49,-77 1230.49,-77 1236.49,-83 1236.49,-89 1236.49,-89 1236.49,-101 1236.49,-101 1236.49,-107 1230.49,-113 1224.49,-113"/>
<text xml:space="preserve" text-anchor="middle" x="1206.58" y="-92" font-family="Menlo" font-size="10.00">pg::Pool</text>
</g>
<!-- _thoth_agents_conversations_outbound_postgres_postgres_conversation_repository_PostgresConversationRepository&#45;&gt;pg_Pool -->
<g id="edge3" class="edge">
<title>_thoth_agents_conversations_outbound_postgres_postgres_conversation_repository_PostgresConversationRepository&#45;&gt;pg_Pool</title>
<path fill="none" stroke="#64748b" stroke-width="1.2" d="M1009.87,-95C1009.87,-95 1167.4,-95 1167.4,-95"/>
<polygon fill="#64748b" stroke="#64748b" stroke-width="1.2" points="1167.4,-97.45 1174.4,-95 1167.4,-92.55 1167.4,-97.45"/>
</g>
<!-- _thoth_agents_kb_curate_agent_application_knowledge_curation_service_KnowledgeCurationService -->
<g id="node13" class="node">
<title>_thoth_agents_kb_curate_agent_application_knowledge_curation_service_KnowledgeCurationService</title>
<path fill="#ffffff" stroke="#94a3b8" d="M440.82,-662C440.82,-662 34.27,-662 34.27,-662 28.27,-662 22.27,-656 22.27,-650 22.27,-650 22.27,-638 22.27,-638 22.27,-632 28.27,-626 34.27,-626 34.27,-626 440.82,-626 440.82,-626 446.82,-626 452.82,-632 452.82,-638 452.82,-638 452.82,-650 452.82,-650 452.82,-656 446.82,-662 440.82,-662"/>
<text xml:space="preserve" text-anchor="middle" x="237.55" y="-641" font-family="Menlo" font-size="10.00">@thoth/agents::kb&#45;curate&#45;agent/application/knowledge&#45;curation&#45;service::KnowledgeCurationService</text>
</g>
<!-- _thoth_contracts_application_error_ApplicationError -->
<g id="node14" class="node">
<title>_thoth_contracts_application_error_ApplicationError</title>
<path fill="#ffffff" stroke="#94a3b8" d="M346.13,-747C346.13,-747 128.96,-747 128.96,-747 122.96,-747 116.96,-741 116.96,-735 116.96,-735 116.96,-723 116.96,-723 116.96,-717 122.96,-711 128.96,-711 128.96,-711 346.13,-711 346.13,-711 352.13,-711 358.13,-717 358.13,-723 358.13,-723 358.13,-735 358.13,-735 358.13,-741 352.13,-747 346.13,-747"/>
<text xml:space="preserve" text-anchor="middle" x="237.55" y="-726" font-family="Menlo" font-size="10.00">@thoth/contracts::application&#45;error::ApplicationError</text>
</g>
<!-- _thoth_contracts_conversations_AttachmentDto -->
<g id="node15" class="node">
<title>_thoth_contracts_conversations_AttachmentDto</title>
<path fill="#f8fafc" stroke="#94a3b8" d="M336.7,-808C336.7,-808 138.39,-808 138.39,-808 132.39,-808 126.39,-802 126.39,-796 126.39,-796 126.39,-784 126.39,-784 126.39,-778 132.39,-772 138.39,-772 138.39,-772 336.7,-772 336.7,-772 342.7,-772 348.7,-778 348.7,-784 348.7,-784 348.7,-796 348.7,-796 348.7,-802 342.7,-808 336.7,-808"/>
<text xml:space="preserve" text-anchor="middle" x="237.55" y="-787" font-family="Menlo" font-size="10.00">@thoth/contracts::conversations::AttachmentDto</text>
</g>
<!-- _thoth_contracts_conversations_AttachmentUpload -->
<g id="node16" class="node">
<title>_thoth_contracts_conversations_AttachmentUpload</title>
<path fill="#f8fafc" stroke="#94a3b8" d="M343.92,-869C343.92,-869 131.17,-869 131.17,-869 125.17,-869 119.17,-863 119.17,-857 119.17,-857 119.17,-845 119.17,-845 119.17,-839 125.17,-833 131.17,-833 131.17,-833 343.92,-833 343.92,-833 349.92,-833 355.92,-839 355.92,-845 355.92,-845 355.92,-857 355.92,-857 355.92,-863 349.92,-869 343.92,-869"/>
<text xml:space="preserve" text-anchor="middle" x="237.55" y="-848" font-family="Menlo" font-size="10.00">@thoth/contracts::conversations::AttachmentUpload</text>
</g>
<!-- _thoth_contracts_conversations_ConversationDto -->
<g id="node17" class="node">
<title>_thoth_contracts_conversations_ConversationDto</title>
<path fill="#f8fafc" stroke="#94a3b8" d="M340.04,-930C340.04,-930 135.06,-930 135.06,-930 129.06,-930 123.06,-924 123.06,-918 123.06,-918 123.06,-906 123.06,-906 123.06,-900 129.06,-894 135.06,-894 135.06,-894 340.04,-894 340.04,-894 346.04,-894 352.04,-900 352.04,-906 352.04,-906 352.04,-918 352.04,-918 352.04,-924 346.04,-930 340.04,-930"/>
<text xml:space="preserve" text-anchor="middle" x="237.55" y="-909" font-family="Menlo" font-size="10.00">@thoth/contracts::conversations::ConversationDto</text>
</g>
<!-- _thoth_contracts_conversations_ConversationsApplicationService -->
<g id="node18" class="node">
<title>_thoth_contracts_conversations_ConversationsApplicationService</title>
<path fill="#f8fafc" stroke="#94a3b8" d="M373.08,-991C373.08,-991 102.01,-991 102.01,-991 96.01,-991 90.01,-985 90.01,-979 90.01,-979 90.01,-967 90.01,-967 90.01,-961 96.01,-955 102.01,-955 102.01,-955 373.08,-955 373.08,-955 379.08,-955 385.08,-961 385.08,-967 385.08,-967 385.08,-979 385.08,-979 385.08,-985 379.08,-991 373.08,-991"/>
<text xml:space="preserve" text-anchor="middle" x="237.55" y="-970" font-family="Menlo" font-size="10.00">@thoth/contracts::conversations::ConversationsApplicationService</text>
</g>
<!-- _thoth_contracts_conversations_CreateConversationCommand -->
<g id="node19" class="node">
<title>_thoth_contracts_conversations_CreateConversationCommand</title>
<path fill="#f8fafc" stroke="#94a3b8" d="M366.42,-1052C366.42,-1052 108.68,-1052 108.68,-1052 102.68,-1052 96.68,-1046 96.68,-1040 96.68,-1040 96.68,-1028 96.68,-1028 96.68,-1022 102.68,-1016 108.68,-1016 108.68,-1016 366.42,-1016 366.42,-1016 372.42,-1016 378.42,-1022 378.42,-1028 378.42,-1028 378.42,-1040 378.42,-1040 378.42,-1046 372.42,-1052 366.42,-1052"/>
<text xml:space="preserve" text-anchor="middle" x="237.55" y="-1031" font-family="Menlo" font-size="10.00">@thoth/contracts::conversations::CreateConversationCommand</text>
</g>
<!-- _thoth_contracts_conversations_DeleteConversationCommand -->
<g id="node20" class="node">
<title>_thoth_contracts_conversations_DeleteConversationCommand</title>
<path fill="#f8fafc" stroke="#94a3b8" d="M366.42,-1113C366.42,-1113 108.68,-1113 108.68,-1113 102.68,-1113 96.68,-1107 96.68,-1101 96.68,-1101 96.68,-1089 96.68,-1089 96.68,-1083 102.68,-1077 108.68,-1077 108.68,-1077 366.42,-1077 366.42,-1077 372.42,-1077 378.42,-1083 378.42,-1089 378.42,-1089 378.42,-1101 378.42,-1101 378.42,-1107 372.42,-1113 366.42,-1113"/>
<text xml:space="preserve" text-anchor="middle" x="237.55" y="-1092" font-family="Menlo" font-size="10.00">@thoth/contracts::conversations::DeleteConversationCommand</text>
</g>
<!-- _thoth_contracts_conversations_DeleteMessageCommand -->
<g id="node21" class="node">
<title>_thoth_contracts_conversations_DeleteMessageCommand</title>
<path fill="#f8fafc" stroke="#94a3b8" d="M357.25,-1174C357.25,-1174 117.84,-1174 117.84,-1174 111.84,-1174 105.84,-1168 105.84,-1162 105.84,-1162 105.84,-1150 105.84,-1150 105.84,-1144 111.84,-1138 117.84,-1138 117.84,-1138 357.25,-1138 357.25,-1138 363.25,-1138 369.25,-1144 369.25,-1150 369.25,-1150 369.25,-1162 369.25,-1162 369.25,-1168 363.25,-1174 357.25,-1174"/>
<text xml:space="preserve" text-anchor="middle" x="237.55" y="-1153" font-family="Menlo" font-size="10.00">@thoth/contracts::conversations::DeleteMessageCommand</text>
</g>
<!-- _thoth_contracts_conversations_MessageDto -->
<g id="node22" class="node">
<title>_thoth_contracts_conversations_MessageDto</title>
<path fill="#f8fafc" stroke="#94a3b8" d="M330.87,-1235C330.87,-1235 144.22,-1235 144.22,-1235 138.22,-1235 132.22,-1229 132.22,-1223 132.22,-1223 132.22,-1211 132.22,-1211 132.22,-1205 138.22,-1199 144.22,-1199 144.22,-1199 330.87,-1199 330.87,-1199 336.87,-1199 342.87,-1205 342.87,-1211 342.87,-1211 342.87,-1223 342.87,-1223 342.87,-1229 336.87,-1235 330.87,-1235"/>
<text xml:space="preserve" text-anchor="middle" x="237.55" y="-1214" font-family="Menlo" font-size="10.00">@thoth/contracts::conversations::MessageDto</text>
</g>
<!-- _thoth_contracts_conversations_PostMessageCommand -->
<g id="node23" class="node">
<title>_thoth_contracts_conversations_PostMessageCommand</title>
<path fill="#f8fafc" stroke="#94a3b8" d="M352.82,-1296C352.82,-1296 122.27,-1296 122.27,-1296 116.27,-1296 110.27,-1290 110.27,-1284 110.27,-1284 110.27,-1272 110.27,-1272 110.27,-1266 116.27,-1260 122.27,-1260 122.27,-1260 352.82,-1260 352.82,-1260 358.82,-1260 364.82,-1266 364.82,-1272 364.82,-1272 364.82,-1284 364.82,-1284 364.82,-1290 358.82,-1296 352.82,-1296"/>
<text xml:space="preserve" text-anchor="middle" x="237.55" y="-1275" font-family="Menlo" font-size="10.00">@thoth/contracts::conversations::PostMessageCommand</text>
</g>
<!-- _thoth_contracts_knowledge_curation_KnowledgeCurationApplicationService -->
<g id="node24" class="node">
<title>_thoth_contracts_knowledge_curation_KnowledgeCurationApplicationService</title>
<path fill="#f8fafc" stroke="#94a3b8" d="M397.51,-1357C397.51,-1357 77.58,-1357 77.58,-1357 71.58,-1357 65.58,-1351 65.58,-1345 65.58,-1345 65.58,-1333 65.58,-1333 65.58,-1327 71.58,-1321 77.58,-1321 77.58,-1321 397.51,-1321 397.51,-1321 403.51,-1321 409.51,-1327 409.51,-1333 409.51,-1333 409.51,-1345 409.51,-1345 409.51,-1351 403.51,-1357 397.51,-1357"/>
<text xml:space="preserve" text-anchor="middle" x="237.55" y="-1336" font-family="Menlo" font-size="10.00">@thoth/contracts::knowledge&#45;curation::KnowledgeCurationApplicationService</text>
</g>
<!-- _thoth_contracts_knowledge_curation_KnowledgeCurationRunResult -->
<g id="node25" class="node">
<title>_thoth_contracts_knowledge_curation_KnowledgeCurationRunResult</title>
<path fill="#f8fafc" stroke="#94a3b8" d="M380.03,-1418C380.03,-1418 95.07,-1418 95.07,-1418 89.07,-1418 83.07,-1412 83.07,-1406 83.07,-1406 83.07,-1394 83.07,-1394 83.07,-1388 89.07,-1382 95.07,-1382 95.07,-1382 380.03,-1382 380.03,-1382 386.03,-1382 392.03,-1388 392.03,-1394 392.03,-1394 392.03,-1406 392.03,-1406 392.03,-1412 386.03,-1418 380.03,-1418"/>
<text xml:space="preserve" text-anchor="middle" x="237.55" y="-1397" font-family="Menlo" font-size="10.00">@thoth/contracts::knowledge&#45;curation::KnowledgeCurationRunResult</text>
</g>
<!-- _thoth_entities_aggregates_conversation_Conversation -->
<g id="node26" class="node">
<title>_thoth_entities_aggregates_conversation_Conversation</title>
<path fill="#ffffff" stroke="#94a3b8" d="M875.44,-747C875.44,-747 651.03,-747 651.03,-747 645.03,-747 639.03,-741 639.03,-735 639.03,-735 639.03,-723 639.03,-723 639.03,-717 645.03,-711 651.03,-711 651.03,-711 875.44,-711 875.44,-711 881.44,-711 887.44,-717 887.44,-723 887.44,-723 887.44,-735 887.44,-735 887.44,-741 881.44,-747 875.44,-747"/>
<text xml:space="preserve" text-anchor="middle" x="763.24" y="-726" font-family="Menlo" font-size="10.00">@thoth/entities::aggregates/conversation::Conversation</text>
</g>
<!-- _thoth_entities_aggregates_domain_events_DomainEvent -->
<g id="node30" class="node">
<title>_thoth_entities_aggregates_domain_events_DomainEvent</title>
<path fill="#f8fafc" stroke="#94a3b8" d="M1323.79,-747C1323.79,-747 1089.38,-747 1089.38,-747 1083.38,-747 1077.38,-741 1077.38,-735 1077.38,-735 1077.38,-723 1077.38,-723 1077.38,-717 1083.38,-711 1089.38,-711 1089.38,-711 1323.79,-711 1323.79,-711 1329.79,-711 1335.79,-717 1335.79,-723 1335.79,-723 1335.79,-735 1335.79,-735 1335.79,-741 1329.79,-747 1323.79,-747"/>
<text xml:space="preserve" text-anchor="middle" x="1206.58" y="-726" font-family="Menlo" font-size="10.00">@thoth/entities::aggregates/domain&#45;events::DomainEvent</text>
</g>
<!-- _thoth_entities_aggregates_conversation_Conversation&#45;&gt;_thoth_entities_aggregates_domain_events_DomainEvent -->
<g id="edge4" class="edge">
<title>_thoth_entities_aggregates_conversation_Conversation&#45;&gt;_thoth_entities_aggregates_domain_events_DomainEvent</title>
<path fill="none" stroke="#64748b" stroke-width="1.2" d="M887.91,-720C887.91,-720 1068.24,-720 1068.24,-720"/>
<polygon fill="#64748b" stroke="#64748b" stroke-width="1.2" points="1068.24,-722.45 1075.24,-720 1068.24,-717.55 1068.24,-722.45"/>
</g>
<!-- _thoth_entities_entities_message_Message -->
<g id="node35" class="node">
<title>_thoth_entities_entities_message_Message</title>
<path fill="#ffffff" stroke="#94a3b8" d="M1294.08,-808C1294.08,-808 1119.09,-808 1119.09,-808 1113.09,-808 1107.09,-802 1107.09,-796 1107.09,-796 1107.09,-784 1107.09,-784 1107.09,-778 1113.09,-772 1119.09,-772 1119.09,-772 1294.08,-772 1294.08,-772 1300.08,-772 1306.08,-778 1306.08,-784 1306.08,-784 1306.08,-796 1306.08,-796 1306.08,-802 1300.08,-808 1294.08,-808"/>
<text xml:space="preserve" text-anchor="middle" x="1206.58" y="-787" font-family="Menlo" font-size="10.00">@thoth/entities::entities/message::Message</text>
</g>
<!-- _thoth_entities_aggregates_conversation_Conversation&#45;&gt;_thoth_entities_entities_message_Message -->
<g id="edge5" class="edge">
<title>_thoth_entities_aggregates_conversation_Conversation&#45;&gt;_thoth_entities_entities_message_Message</title>
<path fill="none" stroke="#64748b" stroke-width="1.2" d="M887.75,-738C928.89,-738 964.35,-738 964.35,-738 964.35,-738 964.35,-790 964.35,-790 964.35,-790 1097.84,-790 1097.84,-790"/>
<polygon fill="#64748b" stroke="#64748b" stroke-width="1.2" points="1097.84,-792.45 1104.84,-790 1097.84,-787.55 1097.84,-792.45"/>
</g>
<!-- _thoth_entities_value_objects_conversation_id_ConversationId -->
<g id="node47" class="node">
<title>_thoth_entities_value_objects_conversation_id_ConversationId</title>
<path fill="#ffffff" stroke="#94a3b8" d="M1333.79,-869C1333.79,-869 1079.38,-869 1079.38,-869 1073.38,-869 1067.38,-863 1067.38,-857 1067.38,-857 1067.38,-845 1067.38,-845 1067.38,-839 1073.38,-833 1079.38,-833 1079.38,-833 1333.79,-833 1333.79,-833 1339.79,-833 1345.79,-839 1345.79,-845 1345.79,-845 1345.79,-857 1345.79,-857 1345.79,-863 1339.79,-869 1333.79,-869"/>
<text xml:space="preserve" text-anchor="middle" x="1206.58" y="-848" font-family="Menlo" font-size="10.00">@thoth/entities::value&#45;objects/conversation&#45;id::ConversationId</text>
</g>
<!-- _thoth_entities_aggregates_conversation_Conversation&#45;&gt;_thoth_entities_value_objects_conversation_id_ConversationId -->
<g id="edge6" class="edge">
<title>_thoth_entities_aggregates_conversation_Conversation&#45;&gt;_thoth_entities_value_objects_conversation_id_ConversationId</title>
<path fill="none" stroke="#64748b" stroke-width="1.2" d="M887.63,-729C973.53,-729 1072.35,-729 1072.35,-729 1072.35,-729 1072.35,-823.92 1072.35,-823.92"/>
<polygon fill="#64748b" stroke="#64748b" stroke-width="1.2" points="1069.9,-823.92 1072.35,-830.92 1074.8,-823.92 1069.9,-823.92"/>
</g>
<!-- _thoth_entities_aggregates_conversation_ConversationRehydrateProps -->
<g id="node27" class="node">
<title>_thoth_entities_aggregates_conversation_ConversationRehydrateProps</title>
<path fill="#f8fafc" stroke="#94a3b8" d="M907.38,-808C907.38,-808 619.09,-808 619.09,-808 613.09,-808 607.09,-802 607.09,-796 607.09,-796 607.09,-784 607.09,-784 607.09,-778 613.09,-772 619.09,-772 619.09,-772 907.38,-772 907.38,-772 913.38,-772 919.38,-778 919.38,-784 919.38,-784 919.38,-796 919.38,-796 919.38,-802 913.38,-808 907.38,-808"/>
<text xml:space="preserve" text-anchor="middle" x="763.24" y="-787" font-family="Menlo" font-size="10.00">@thoth/entities::aggregates/conversation::ConversationRehydrateProps</text>
</g>
<!-- _thoth_entities_aggregates_conversation_PostMessageProps -->
<g id="node28" class="node">
<title>_thoth_entities_aggregates_conversation_PostMessageProps</title>
<path fill="#f8fafc" stroke="#94a3b8" d="M886.28,-869C886.28,-869 640.19,-869 640.19,-869 634.19,-869 628.19,-863 628.19,-857 628.19,-857 628.19,-845 628.19,-845 628.19,-839 634.19,-833 640.19,-833 640.19,-833 886.28,-833 886.28,-833 892.28,-833 898.28,-839 898.28,-845 898.28,-845 898.28,-857 898.28,-857 898.28,-863 892.28,-869 886.28,-869"/>
<text xml:space="preserve" text-anchor="middle" x="763.24" y="-848" font-family="Menlo" font-size="10.00">@thoth/entities::aggregates/conversation::PostMessageProps</text>
</g>
<!-- _thoth_entities_aggregates_domain_events_ConversationCreated -->
<g id="node29" class="node">
<title>_thoth_entities_aggregates_domain_events_ConversationCreated</title>
<path fill="#f8fafc" stroke="#94a3b8" d="M894.88,-930C894.88,-930 631.6,-930 631.6,-930 625.6,-930 619.6,-924 619.6,-918 619.6,-918 619.6,-906 619.6,-906 619.6,-900 625.6,-894 631.6,-894 631.6,-894 894.88,-894 894.88,-894 900.88,-894 906.88,-900 906.88,-906 906.88,-906 906.88,-918 906.88,-918 906.88,-924 900.88,-930 894.88,-930"/>
<text xml:space="preserve" text-anchor="middle" x="763.24" y="-909" font-family="Menlo" font-size="10.00">@thoth/entities::aggregates/domain&#45;events::ConversationCreated</text>
</g>
<!-- _thoth_entities_aggregates_domain_events_MessagePosted -->
<g id="node31" class="node">
<title>_thoth_entities_aggregates_domain_events_MessagePosted</title>
<path fill="#f8fafc" stroke="#94a3b8" d="M883.5,-991C883.5,-991 642.97,-991 642.97,-991 636.97,-991 630.97,-985 630.97,-979 630.97,-979 630.97,-967 630.97,-967 630.97,-961 636.97,-955 642.97,-955 642.97,-955 883.5,-955 883.5,-955 889.5,-955 895.5,-961 895.5,-967 895.5,-967 895.5,-979 895.5,-979 895.5,-985 889.5,-991 883.5,-991"/>
<text xml:space="preserve" text-anchor="middle" x="763.24" y="-970" font-family="Menlo" font-size="10.00">@thoth/entities::aggregates/domain&#45;events::MessagePosted</text>
</g>
<!-- _thoth_entities_aggregates_domain_events_MessageRemoved -->
<g id="node32" class="node">
<title>_thoth_entities_aggregates_domain_events_MessageRemoved</title>
<path fill="#f8fafc" stroke="#94a3b8" d="M889.33,-1052C889.33,-1052 637.15,-1052 637.15,-1052 631.15,-1052 625.15,-1046 625.15,-1040 625.15,-1040 625.15,-1028 625.15,-1028 625.15,-1022 631.15,-1016 637.15,-1016 637.15,-1016 889.33,-1016 889.33,-1016 895.33,-1016 901.33,-1022 901.33,-1028 901.33,-1028 901.33,-1040 901.33,-1040 901.33,-1046 895.33,-1052 889.33,-1052"/>
<text xml:space="preserve" text-anchor="middle" x="763.24" y="-1031" font-family="Menlo" font-size="10.00">@thoth/entities::aggregates/domain&#45;events::MessageRemoved</text>
</g>
<!-- _thoth_entities_entities_attachment_Attachment -->
<g id="node33" class="node">
<title>_thoth_entities_entities_attachment_Attachment</title>
<path fill="#ffffff" stroke="#94a3b8" d="M1632.14,-747C1632.14,-747 1435.5,-747 1435.5,-747 1429.5,-747 1423.5,-741 1423.5,-735 1423.5,-735 1423.5,-723 1423.5,-723 1423.5,-717 1429.5,-711 1435.5,-711 1435.5,-711 1632.14,-711 1632.14,-711 1638.14,-711 1644.14,-717 1644.14,-723 1644.14,-723 1644.14,-735 1644.14,-735 1644.14,-741 1638.14,-747 1632.14,-747"/>
<text xml:space="preserve" text-anchor="middle" x="1533.82" y="-726" font-family="Menlo" font-size="10.00">@thoth/entities::entities/attachment::Attachment</text>
</g>
<!-- _thoth_entities_entities_attachment_AttachmentProps -->
<g id="node34" class="node">
<title>_thoth_entities_entities_attachment_AttachmentProps</title>
<path fill="#f8fafc" stroke="#94a3b8" d="M1963.81,-747C1963.81,-747 1744.39,-747 1744.39,-747 1738.39,-747 1732.39,-741 1732.39,-735 1732.39,-735 1732.39,-723 1732.39,-723 1732.39,-717 1738.39,-711 1744.39,-711 1744.39,-711 1963.81,-711 1963.81,-711 1969.81,-711 1975.81,-717 1975.81,-723 1975.81,-723 1975.81,-735 1975.81,-735 1975.81,-741 1969.81,-747 1963.81,-747"/>
<text xml:space="preserve" text-anchor="middle" x="1854.1" y="-726" font-family="Menlo" font-size="10.00">@thoth/entities::entities/attachment::AttachmentProps</text>
</g>
<!-- _thoth_entities_entities_attachment_Attachment&#45;&gt;_thoth_entities_entities_attachment_AttachmentProps -->
<g id="edge7" class="edge">
<title>_thoth_entities_entities_attachment_Attachment&#45;&gt;_thoth_entities_entities_attachment_AttachmentProps</title>
<path fill="none" stroke="#64748b" stroke-width="1.2" d="M1644.49,-723C1644.49,-723 1723.1,-723 1723.1,-723"/>
<polygon fill="#64748b" stroke="#64748b" stroke-width="1.2" points="1723.1,-725.45 1730.1,-723 1723.1,-720.55 1723.1,-725.45"/>
</g>
<!-- _thoth_entities_value_objects_attachment_id_AttachmentId -->
<g id="node46" class="node">
<title>_thoth_entities_value_objects_attachment_id_AttachmentId</title>
<path fill="#ffffff" stroke="#94a3b8" d="M1974.35,-808C1974.35,-808 1733.85,-808 1733.85,-808 1727.85,-808 1721.85,-802 1721.85,-796 1721.85,-796 1721.85,-784 1721.85,-784 1721.85,-778 1727.85,-772 1733.85,-772 1733.85,-772 1974.35,-772 1974.35,-772 1980.35,-772 1986.35,-778 1986.35,-784 1986.35,-784 1986.35,-796 1986.35,-796 1986.35,-802 1980.35,-808 1974.35,-808"/>
<text xml:space="preserve" text-anchor="middle" x="1854.1" y="-787" font-family="Menlo" font-size="10.00">@thoth/entities::value&#45;objects/attachment&#45;id::AttachmentId</text>
</g>
<!-- _thoth_entities_entities_attachment_Attachment&#45;&gt;_thoth_entities_value_objects_attachment_id_AttachmentId -->
<g id="edge8" class="edge">
<title>_thoth_entities_entities_attachment_Attachment&#45;&gt;_thoth_entities_value_objects_attachment_id_AttachmentId</title>
<path fill="none" stroke="#64748b" stroke-width="1.2" d="M1644.44,-735C1687.79,-735 1727.35,-735 1727.35,-735 1727.35,-735 1727.35,-762.87 1727.35,-762.87"/>
<polygon fill="#64748b" stroke="#64748b" stroke-width="1.2" points="1724.9,-762.87 1727.35,-769.87 1729.8,-762.87 1724.9,-762.87"/>
</g>
<!-- _thoth_entities_entities_message_Message&#45;&gt;_thoth_entities_entities_attachment_Attachment -->
<g id="edge9" class="edge">
<title>_thoth_entities_entities_message_Message&#45;&gt;_thoth_entities_entities_attachment_Attachment</title>
<path fill="none" stroke="#64748b" stroke-width="1.2" d="M1306.25,-779.2C1325.78,-779.2 1340.35,-779.2 1340.35,-779.2 1340.35,-779.2 1340.35,-729 1340.35,-729 1340.35,-729 1414.43,-729 1414.43,-729"/>
<polygon fill="#64748b" stroke="#64748b" stroke-width="1.2" points="1414.43,-731.45 1421.43,-729 1414.43,-726.55 1414.43,-731.45"/>
</g>
<!-- _thoth_entities_entities_message_MessageProps -->
<g id="node36" class="node">
<title>_thoth_entities_entities_message_MessageProps</title>
<path fill="#f8fafc" stroke="#94a3b8" d="M1632.7,-808C1632.7,-808 1434.93,-808 1434.93,-808 1428.93,-808 1422.93,-802 1422.93,-796 1422.93,-796 1422.93,-784 1422.93,-784 1422.93,-778 1428.93,-772 1434.93,-772 1434.93,-772 1632.7,-772 1632.7,-772 1638.7,-772 1644.7,-778 1644.7,-784 1644.7,-784 1644.7,-796 1644.7,-796 1644.7,-802 1638.7,-808 1632.7,-808"/>
<text xml:space="preserve" text-anchor="middle" x="1533.82" y="-787" font-family="Menlo" font-size="10.00">@thoth/entities::entities/message::MessageProps</text>
</g>
<!-- _thoth_entities_entities_message_Message&#45;&gt;_thoth_entities_entities_message_MessageProps -->
<g id="edge10" class="edge">
<title>_thoth_entities_entities_message_Message&#45;&gt;_thoth_entities_entities_message_MessageProps</title>
<path fill="none" stroke="#64748b" stroke-width="1.2" d="M1306.54,-786.4C1306.54,-786.4 1413.67,-786.4 1413.67,-786.4"/>
<polygon fill="#64748b" stroke="#64748b" stroke-width="1.2" points="1413.67,-788.85 1420.67,-786.4 1413.67,-783.95 1413.67,-788.85"/>
</g>
<!-- _thoth_entities_value_objects_message_id_MessageId -->
<g id="node48" class="node">
<title>_thoth_entities_value_objects_message_id_MessageId</title>
<path fill="#ffffff" stroke="#94a3b8" d="M1643.24,-869C1643.24,-869 1424.39,-869 1424.39,-869 1418.39,-869 1412.39,-863 1412.39,-857 1412.39,-857 1412.39,-845 1412.39,-845 1412.39,-839 1418.39,-833 1424.39,-833 1424.39,-833 1643.24,-833 1643.24,-833 1649.24,-833 1655.24,-839 1655.24,-845 1655.24,-845 1655.24,-857 1655.24,-857 1655.24,-863 1649.24,-869 1643.24,-869"/>
<text xml:space="preserve" text-anchor="middle" x="1533.82" y="-848" font-family="Menlo" font-size="10.00">@thoth/entities::value&#45;objects/message&#45;id::MessageId</text>
</g>
<!-- _thoth_entities_entities_message_Message&#45;&gt;_thoth_entities_value_objects_message_id_MessageId -->
<g id="edge11" class="edge">
<title>_thoth_entities_entities_message_Message&#45;&gt;_thoth_entities_value_objects_message_id_MessageId</title>
<path fill="none" stroke="#64748b" stroke-width="1.2" d="M1306.41,-793.6C1360.89,-793.6 1417.35,-793.6 1417.35,-793.6 1417.35,-793.6 1417.35,-823.71 1417.35,-823.71"/>
<polygon fill="#64748b" stroke="#64748b" stroke-width="1.2" points="1414.9,-823.71 1417.35,-830.71 1419.8,-823.71 1414.9,-823.71"/>
</g>
<!-- _thoth_entities_value_objects_message_text_MessageText -->
<g id="node49" class="node">
<title>_thoth_entities_value_objects_message_text_MessageText</title>
<path fill="#ffffff" stroke="#94a3b8" d="M1651.85,-930C1651.85,-930 1415.79,-930 1415.79,-930 1409.79,-930 1403.79,-924 1403.79,-918 1403.79,-918 1403.79,-906 1403.79,-906 1403.79,-900 1409.79,-894 1415.79,-894 1415.79,-894 1651.85,-894 1651.85,-894 1657.85,-894 1663.85,-900 1663.85,-906 1663.85,-906 1663.85,-918 1663.85,-918 1663.85,-924 1657.85,-930 1651.85,-930"/>
<text xml:space="preserve" text-anchor="middle" x="1533.82" y="-909" font-family="Menlo" font-size="10.00">@thoth/entities::value&#45;objects/message&#45;text::MessageText</text>
</g>
<!-- _thoth_entities_entities_message_Message&#45;&gt;_thoth_entities_value_objects_message_text_MessageText -->
<g id="edge12" class="edge">
<title>_thoth_entities_entities_message_Message&#45;&gt;_thoth_entities_value_objects_message_text_MessageText</title>
<path fill="none" stroke="#64748b" stroke-width="1.2" d="M1306.29,-800.8C1357.12,-800.8 1408.35,-800.8 1408.35,-800.8 1408.35,-800.8 1408.35,-884.82 1408.35,-884.82"/>
<polygon fill="#64748b" stroke="#64748b" stroke-width="1.2" points="1405.9,-884.82 1408.35,-891.82 1410.8,-884.82 1405.9,-884.82"/>
</g>
<!-- _thoth_entities_ports_CopyBlobInput -->
<g id="node39" class="node">
<title>_thoth_entities_ports_CopyBlobInput</title>
<path fill="#f8fafc" stroke="#94a3b8" d="M841.58,-1235C841.58,-1235 684.89,-1235 684.89,-1235 678.89,-1235 672.89,-1229 672.89,-1223 672.89,-1223 672.89,-1211 672.89,-1211 672.89,-1205 678.89,-1199 684.89,-1199 684.89,-1199 841.58,-1199 841.58,-1199 847.58,-1199 853.58,-1205 853.58,-1211 853.58,-1211 853.58,-1223 853.58,-1223 853.58,-1229 847.58,-1235 841.58,-1235"/>
<text xml:space="preserve" text-anchor="middle" x="763.24" y="-1214" font-family="Menlo" font-size="10.00">@thoth/entities::ports::CopyBlobInput</text>
</g>
<!-- _thoth_entities_ports_DeleteBlobInput -->
<g id="node40" class="node">
<title>_thoth_entities_ports_DeleteBlobInput</title>
<path fill="#f8fafc" stroke="#94a3b8" d="M843.79,-1296C843.79,-1296 682.68,-1296 682.68,-1296 676.68,-1296 670.68,-1290 670.68,-1284 670.68,-1284 670.68,-1272 670.68,-1272 670.68,-1266 676.68,-1260 682.68,-1260 682.68,-1260 843.79,-1260 843.79,-1260 849.79,-1260 855.79,-1266 855.79,-1272 855.79,-1272 855.79,-1284 855.79,-1284 855.79,-1290 849.79,-1296 843.79,-1296"/>
<text xml:space="preserve" text-anchor="middle" x="763.24" y="-1275" font-family="Menlo" font-size="10.00">@thoth/entities::ports::DeleteBlobInput</text>
</g>
<!-- _thoth_entities_ports_GetBlobInput -->
<g id="node41" class="node">
<title>_thoth_entities_ports_GetBlobInput</title>
<path fill="#f8fafc" stroke="#94a3b8" d="M837.96,-1357C837.96,-1357 688.51,-1357 688.51,-1357 682.51,-1357 676.51,-1351 676.51,-1345 676.51,-1345 676.51,-1333 676.51,-1333 676.51,-1327 682.51,-1321 688.51,-1321 688.51,-1321 837.96,-1321 837.96,-1321 843.96,-1321 849.96,-1327 849.96,-1333 849.96,-1333 849.96,-1345 849.96,-1345 849.96,-1351 843.96,-1357 837.96,-1357"/>
<text xml:space="preserve" text-anchor="middle" x="763.24" y="-1336" font-family="Menlo" font-size="10.00">@thoth/entities::ports::GetBlobInput</text>
</g>
<!-- _thoth_entities_ports_HeadBlobInput -->
<g id="node42" class="node">
<title>_thoth_entities_ports_HeadBlobInput</title>
<path fill="#f8fafc" stroke="#94a3b8" d="M841.29,-1418C841.29,-1418 685.18,-1418 685.18,-1418 679.18,-1418 673.18,-1412 673.18,-1406 673.18,-1406 673.18,-1394 673.18,-1394 673.18,-1388 679.18,-1382 685.18,-1382 685.18,-1382 841.29,-1382 841.29,-1382 847.29,-1382 853.29,-1388 853.29,-1394 853.29,-1394 853.29,-1406 853.29,-1406 853.29,-1412 847.29,-1418 841.29,-1418"/>
<text xml:space="preserve" text-anchor="middle" x="763.24" y="-1397" font-family="Menlo" font-size="10.00">@thoth/entities::ports::HeadBlobInput</text>
</g>
<!-- _thoth_entities_ports_PutBlobInput -->
<g id="node43" class="node">
<title>_thoth_entities_ports_PutBlobInput</title>
<path fill="#f8fafc" stroke="#94a3b8" d="M837.41,-1479C837.41,-1479 689.06,-1479 689.06,-1479 683.06,-1479 677.06,-1473 677.06,-1467 677.06,-1467 677.06,-1455 677.06,-1455 677.06,-1449 683.06,-1443 689.06,-1443 689.06,-1443 837.41,-1443 837.41,-1443 843.41,-1443 849.41,-1449 849.41,-1455 849.41,-1455 849.41,-1467 849.41,-1467 849.41,-1473 843.41,-1479 837.41,-1479"/>
<text xml:space="preserve" text-anchor="middle" x="763.24" y="-1458" font-family="Menlo" font-size="10.00">@thoth/entities::ports::PutBlobInput</text>
</g>
<!-- _thoth_entities_ports_StoredBlobBody -->
<g id="node44" class="node">
<title>_thoth_entities_ports_StoredBlobBody</title>
<path fill="#f8fafc" stroke="#94a3b8" d="M844.08,-1540C844.08,-1540 682.39,-1540 682.39,-1540 676.39,-1540 670.39,-1534 670.39,-1528 670.39,-1528 670.39,-1516 670.39,-1516 670.39,-1510 676.39,-1504 682.39,-1504 682.39,-1504 844.08,-1504 844.08,-1504 850.08,-1504 856.08,-1510 856.08,-1516 856.08,-1516 856.08,-1528 856.08,-1528 856.08,-1534 850.08,-1540 844.08,-1540"/>
<text xml:space="preserve" text-anchor="middle" x="763.24" y="-1519" font-family="Menlo" font-size="10.00">@thoth/entities::ports::StoredBlobBody</text>
</g>
<!-- _thoth_entities_ports_StoredBlobMetadata -->
<g id="node45" class="node">
<title>_thoth_entities_ports_StoredBlobMetadata</title>
<path fill="#f8fafc" stroke="#94a3b8" d="M851.85,-1601C851.85,-1601 674.63,-1601 674.63,-1601 668.63,-1601 662.63,-1595 662.63,-1589 662.63,-1589 662.63,-1577 662.63,-1577 662.63,-1571 668.63,-1565 674.63,-1565 674.63,-1565 851.85,-1565 851.85,-1565 857.85,-1565 863.85,-1571 863.85,-1577 863.85,-1577 863.85,-1589 863.85,-1589 863.85,-1595 857.85,-1601 851.85,-1601"/>
<text xml:space="preserve" text-anchor="middle" x="763.24" y="-1580" font-family="Menlo" font-size="10.00">@thoth/entities::ports::StoredBlobMetadata</text>
</g>
<!-- _thoth_entities_value_objects_string_value_object_StringValueObject -->
<g id="node50" class="node">
<title>_thoth_entities_value_objects_string_value_object_StringValueObject</title>
<path fill="#fff7ed" stroke="#94a3b8" d="M903.76,-1662C903.76,-1662 622.71,-1662 622.71,-1662 616.71,-1662 610.71,-1656 610.71,-1650 610.71,-1650 610.71,-1638 610.71,-1638 610.71,-1632 616.71,-1626 622.71,-1626 622.71,-1626 903.76,-1626 903.76,-1626 909.76,-1626 915.76,-1632 915.76,-1638 915.76,-1638 915.76,-1650 915.76,-1650 915.76,-1656 909.76,-1662 903.76,-1662"/>
<text xml:space="preserve" text-anchor="middle" x="763.24" y="-1641" font-family="Menlo" font-size="10.00">@thoth/entities::value&#45;objects/string&#45;value&#45;object::StringValueObject</text>
</g>
<!-- scripts_generate_import_graph_GenerateGraphOptions -->
<g id="node51" class="node">
<title>scripts_generate_import_graph_GenerateGraphOptions</title>
<path fill="#f8fafc" stroke="#94a3b8" d="M348.47,-1503C348.47,-1503 126.63,-1503 126.63,-1503 120.63,-1503 114.63,-1497 114.63,-1491 114.63,-1491 114.63,-1479 114.63,-1479 114.63,-1473 120.63,-1467 126.63,-1467 126.63,-1467 348.47,-1467 348.47,-1467 354.47,-1467 360.47,-1473 360.47,-1479 360.47,-1479 360.47,-1491 360.47,-1491 360.47,-1497 354.47,-1503 348.47,-1503"/>
<text xml:space="preserve" text-anchor="middle" x="237.55" y="-1482" font-family="Menlo" font-size="10.00">scripts::generate&#45;import&#45;graph::GenerateGraphOptions</text>
</g>
<!-- scripts_generate_import_graph_GraphContext -->
<g id="node52" class="node">
<title>scripts_generate_import_graph_GraphContext</title>
<path fill="#f8fafc" stroke="#94a3b8" d="M330.42,-1564C330.42,-1564 144.67,-1564 144.67,-1564 138.67,-1564 132.67,-1558 132.67,-1552 132.67,-1552 132.67,-1540 132.67,-1540 132.67,-1534 138.67,-1528 144.67,-1528 144.67,-1528 330.42,-1528 330.42,-1528 336.42,-1528 342.42,-1534 342.42,-1540 342.42,-1540 342.42,-1552 342.42,-1552 342.42,-1558 336.42,-1564 330.42,-1564"/>
<text xml:space="preserve" text-anchor="middle" x="237.55" y="-1543" font-family="Menlo" font-size="10.00">scripts::generate&#45;import&#45;graph::GraphContext</text>
</g>
<!-- scripts_generate_import_graph_GraphEdge -->
<g id="node53" class="node">
<title>scripts_generate_import_graph_GraphEdge</title>
<path fill="#f8fafc" stroke="#94a3b8" d="M324.86,-1625C324.86,-1625 150.23,-1625 150.23,-1625 144.23,-1625 138.23,-1619 138.23,-1613 138.23,-1613 138.23,-1601 138.23,-1601 138.23,-1595 144.23,-1589 150.23,-1589 150.23,-1589 324.86,-1589 324.86,-1589 330.86,-1589 336.86,-1595 336.86,-1601 336.86,-1601 336.86,-1613 336.86,-1613 336.86,-1619 330.86,-1625 324.86,-1625"/>
<text xml:space="preserve" text-anchor="middle" x="237.55" y="-1604" font-family="Menlo" font-size="10.00">scripts::generate&#45;import&#45;graph::GraphEdge</text>
</g>
<!-- scripts_generate_import_graph_GraphNode -->
<g id="node54" class="node">
<title>scripts_generate_import_graph_GraphNode</title>
<path fill="#f8fafc" stroke="#94a3b8" d="M325.42,-1686C325.42,-1686 149.67,-1686 149.67,-1686 143.67,-1686 137.67,-1680 137.67,-1674 137.67,-1674 137.67,-1662 137.67,-1662 137.67,-1656 143.67,-1650 149.67,-1650 149.67,-1650 325.42,-1650 325.42,-1650 331.42,-1650 337.42,-1656 337.42,-1662 337.42,-1662 337.42,-1674 337.42,-1674 337.42,-1680 331.42,-1686 325.42,-1686"/>
<text xml:space="preserve" text-anchor="middle" x="237.55" y="-1665" font-family="Menlo" font-size="10.00">scripts::generate&#45;import&#45;graph::GraphNode</text>
</g>
<!-- scripts_generate_import_graph_ImportBinding -->
<g id="node55" class="node">
<title>scripts_generate_import_graph_ImportBinding</title>
<path fill="#f8fafc" stroke="#94a3b8" d="M331.82,-1747C331.82,-1747 143.28,-1747 143.28,-1747 137.28,-1747 131.28,-1741 131.28,-1735 131.28,-1735 131.28,-1723 131.28,-1723 131.28,-1717 137.28,-1711 143.28,-1711 143.28,-1711 331.82,-1711 331.82,-1711 337.82,-1711 343.82,-1717 343.82,-1723 343.82,-1723 343.82,-1735 343.82,-1735 343.82,-1741 337.82,-1747 331.82,-1747"/>
<text xml:space="preserve" text-anchor="middle" x="237.55" y="-1726" font-family="Menlo" font-size="10.00">scripts::generate&#45;import&#45;graph::ImportBinding</text>
</g>
<!-- scripts_generate_import_graph_InjectionGraph -->
<g id="node56" class="node">
<title>scripts_generate_import_graph_InjectionGraph</title>
<path fill="#f8fafc" stroke="#94a3b8" d="M332.36,-1808C332.36,-1808 142.73,-1808 142.73,-1808 136.73,-1808 130.73,-1802 130.73,-1796 130.73,-1796 130.73,-1784 130.73,-1784 130.73,-1778 136.73,-1772 142.73,-1772 142.73,-1772 332.36,-1772 332.36,-1772 338.36,-1772 344.36,-1778 344.36,-1784 344.36,-1784 344.36,-1796 344.36,-1796 344.36,-1802 338.36,-1808 332.36,-1808"/>
<text xml:space="preserve" text-anchor="middle" x="237.55" y="-1787" font-family="Menlo" font-size="10.00">scripts::generate&#45;import&#45;graph::InjectionGraph</text>
</g>
<!-- scripts_generate_import_graph_SourceDocument -->
<g id="node57" class="node">
<title>scripts_generate_import_graph_SourceDocument</title>
<path fill="#f8fafc" stroke="#94a3b8" d="M336.81,-1869C336.81,-1869 138.29,-1869 138.29,-1869 132.29,-1869 126.29,-1863 126.29,-1857 126.29,-1857 126.29,-1845 126.29,-1845 126.29,-1839 132.29,-1833 138.29,-1833 138.29,-1833 336.81,-1833 336.81,-1833 342.81,-1833 348.81,-1839 348.81,-1845 348.81,-1845 348.81,-1857 348.81,-1857 348.81,-1863 342.81,-1869 336.81,-1869"/>
<text xml:space="preserve" text-anchor="middle" x="237.55" y="-1848" font-family="Menlo" font-size="10.00">scripts::generate&#45;import&#45;graph::SourceDocument</text>
</g>
<!-- scripts_generate_import_graph_WorkspacePackage -->
<g id="node58" class="node">
<title>scripts_generate_import_graph_WorkspacePackage</title>
<path fill="#f8fafc" stroke="#94a3b8" d="M341.24,-1930C341.24,-1930 133.85,-1930 133.85,-1930 127.85,-1930 121.85,-1924 121.85,-1918 121.85,-1918 121.85,-1906 121.85,-1906 121.85,-1900 127.85,-1894 133.85,-1894 133.85,-1894 341.24,-1894 341.24,-1894 347.24,-1894 353.24,-1900 353.24,-1906 353.24,-1906 353.24,-1918 353.24,-1918 353.24,-1924 347.24,-1930 341.24,-1930"/>
<text xml:space="preserve" text-anchor="middle" x="237.55" y="-1909" font-family="Menlo" font-size="10.00">scripts::generate&#45;import&#45;graph::WorkspacePackage</text>
</g>
</g>
</svg>
