<?xml version="1.0" encoding="UTF-8" standalone="no"?>
<!DOCTYPE svg PUBLIC "-//W3C//DTD SVG 1.1//EN"
 "http://www.w3.org/Graphics/SVG/1.1/DTD/svg11.dtd">
<!-- Generated by graphviz version 14.1.3 (20260303.0454)
 -->
<!-- Title: Imports Pages: 1 -->
<svg width="877pt" height="1843pt"
 viewBox="0.00 0.00 877.00 1843.00" xmlns="http://www.w3.org/2000/svg" xmlns:xlink="http://www.w3.org/1999/xlink">
<g id="graph0" class="graph" transform="scale(1 1) rotate(0) translate(28.8 1814.2)">
<title>Imports</title>
<polygon fill="#fcfcfb" stroke="none" points="-28.8,28.8 -28.8,-1814.2 848.07,-1814.2 848.07,28.8 -28.8,28.8"/>
<text xml:space="preserve" text-anchor="middle" x="409.63" y="-1768.8" font-family="Times,serif" font-size="14.00">File Import Dependencies</text>
<text xml:space="preserve" text-anchor="middle" x="409.63" y="-1752" font-family="Times,serif" font-size="14.00">Repo&#45;local file imports only. index.ts excluded.</text>
<text xml:space="preserve" text-anchor="middle" x="409.63" y="-1735.2" font-family="Times,serif" font-size="14.00">Each node is package / top_level_folder / file_name.</text>
<g id="clust1" class="cluster">
<title>cluster_agents</title>
<path fill="#fcfcfb" stroke="#d1d5db" d="M20,-8C20,-8 653.69,-8 653.69,-8 659.69,-8 665.69,-14 665.69,-20 665.69,-20 665.69,-537 665.69,-537 665.69,-543 659.69,-549 653.69,-549 653.69,-549 20,-549 20,-549 14,-549 8,-543 8,-537 8,-537 8,-20 8,-20 8,-14 14,-8 20,-8"/>
<text xml:space="preserve" text-anchor="middle" x="336.85" y="-532.4" font-family="Times,serif" font-size="14.00">agents</text>
</g>
<g id="clust2" class="cluster">
<title>cluster_domain_contracts</title>
<path fill="#fcfcfb" stroke="#d1d5db" d="M76.93,-557C76.93,-557 183.99,-557 183.99,-557 189.99,-557 195.99,-563 195.99,-569 195.99,-569 195.99,-786 195.99,-786 195.99,-792 189.99,-798 183.99,-798 183.99,-798 76.93,-798 76.93,-798 70.93,-798 64.93,-792 64.93,-786 64.93,-786 64.93,-569 64.93,-569 64.93,-563 70.93,-557 76.93,-557"/>
<text xml:space="preserve" text-anchor="middle" x="130.46" y="-781.4" font-family="Times,serif" font-size="14.00">domain/contracts</text>
</g>
<g id="clust3" class="cluster">
<title>cluster_domain_entities</title>
<path fill="#fcfcfb" stroke="#d1d5db" d="M85.82,-806C85.82,-806 799.27,-806 799.27,-806 805.27,-806 811.27,-812 811.27,-818 811.27,-818 811.27,-1260 811.27,-1260 811.27,-1266 805.27,-1272 799.27,-1272 799.27,-1272 85.82,-1272 85.82,-1272 79.82,-1272 73.82,-1266 73.82,-1260 73.82,-1260 73.82,-818 73.82,-818 73.82,-812 79.82,-806 85.82,-806"/>
<text xml:space="preserve" text-anchor="middle" x="442.54" y="-1255.4" font-family="Times,serif" font-size="14.00">domain/entities</text>
</g>
<g id="clust4" class="cluster">
<title>cluster_message_proxy</title>
<path fill="#fcfcfb" stroke="#d1d5db" d="M91.24,-1280C91.24,-1280 169.69,-1280 169.69,-1280 175.69,-1280 181.69,-1286 181.69,-1292 181.69,-1292 181.69,-1359 181.69,-1359 181.69,-1365 175.69,-1371 169.69,-1371 169.69,-1371 91.24,-1371 91.24,-1371 85.24,-1371 79.24,-1365 79.24,-1359 79.24,-1359 79.24,-1292 79.24,-1292 79.24,-1286 85.24,-1280 91.24,-1280"/>
<text xml:space="preserve" text-anchor="middle" x="130.46" y="-1354.4" font-family="Times,serif" font-size="14.00">message&#45;proxy</text>
</g>
<g id="clust5" class="cluster">
<title>cluster_web</title>
<path fill="#fcfcfb" stroke="#d1d5db" d="M95.4,-1379C95.4,-1379 410.94,-1379 410.94,-1379 416.94,-1379 422.94,-1385 422.94,-1391 422.94,-1391 422.94,-1533 422.94,-1533 422.94,-1539 416.94,-1545 410.94,-1545 410.94,-1545 95.4,-1545 95.4,-1545 89.4,-1545 83.4,-1539 83.4,-1533 83.4,-1533 83.4,-1391 83.4,-1391 83.4,-1385 89.4,-1379 95.4,-1379"/>
<text xml:space="preserve" text-anchor="middle" x="253.17" y="-1528.4" font-family="Times,serif" font-size="14.00">web</text>
</g>
<g id="clust6" class="cluster">
<title>cluster_scripts</title>
<path fill="#fcfcfb" stroke="#d1d5db" d="M71.94,-1553C71.94,-1553 188.99,-1553 188.99,-1553 194.99,-1553 200.99,-1559 200.99,-1565 200.99,-1565 200.99,-1707 200.99,-1707 200.99,-1713 194.99,-1719 188.99,-1719 188.99,-1719 71.94,-1719 71.94,-1719 65.94,-1719 59.94,-1713 59.94,-1707 59.94,-1707 59.94,-1565 59.94,-1565 59.94,-1559 65.94,-1553 71.94,-1553"/>
<text xml:space="preserve" text-anchor="middle" x="130.46" y="-1702.4" font-family="Times,serif" font-size="14.00">scripts</text>
</g>
<!-- packages_agents_src_conversations_inbound_http_conversations_controller_test_ts -->
<g id="node1" class="node">
<title>packages_agents_src_conversations_inbound_http_conversations_controller_test_ts</title>
<path fill="#ffffff" stroke="#94a3b8" d="M192.8,-66.2C192.8,-66.2 68.13,-66.2 68.13,-66.2 62.13,-66.2 56.13,-60.2 56.13,-54.2 56.13,-54.2 56.13,-27.8 56.13,-27.8 56.13,-21.8 62.13,-15.8 68.13,-15.8 68.13,-15.8 192.8,-15.8 192.8,-15.8 198.8,-15.8 204.8,-21.8 204.8,-27.8 204.8,-27.8 204.8,-54.2 204.8,-54.2 204.8,-60.2 198.8,-66.2 192.8,-66.2"/>
<text xml:space="preserve" text-anchor="middle" x="130.46" y="-50" font-family="Menlo" font-size="10.00">agents</text>
<text xml:space="preserve" text-anchor="middle" x="130.46" y="-38" font-family="Menlo" font-size="10.00">conversations</text>
<text xml:space="preserve" text-anchor="middle" x="130.46" y="-26" font-family="Menlo" font-size="10.00">conversations&#45;controller.test.ts</text>
</g>
<!-- packages_agents_src_conversations_inbound_http_conversations_controller_ts -->
<g id="node2" class="node">
<title>packages_agents_src_conversations_inbound_http_conversations_controller_ts</title>
<path fill="#ffffff" stroke="#94a3b8" d="M440.43,-66.2C440.43,-66.2 332.15,-66.2 332.15,-66.2 326.15,-66.2 320.15,-60.2 320.15,-54.2 320.15,-54.2 320.15,-27.8 320.15,-27.8 320.15,-21.8 326.15,-15.8 332.15,-15.8 332.15,-15.8 440.43,-15.8 440.43,-15.8 446.43,-15.8 452.43,-21.8 452.43,-27.8 452.43,-27.8 452.43,-54.2 452.43,-54.2 452.43,-60.2 446.43,-66.2 440.43,-66.2"/>
<text xml:space="preserve" text-anchor="middle" x="386.29" y="-50" font-family="Menlo" font-size="10.00">agents</text>
<text xml:space="preserve" text-anchor="middle" x="386.29" y="-38" font-family="Menlo" font-size="10.00">conversations</text>
<text xml:space="preserve" text-anchor="middle" x="386.29" y="-26" font-family="Menlo" font-size="10.00">conversations&#45;controller.ts</text>
</g>
<!-- packages_agents_src_conversations_inbound_http_conversations_controller_test_ts&#45;&gt;packages_agents_src_conversations_inbound_http_conversations_controller_ts -->
<g id="edge7" class="edge">
<title>packages_agents_src_conversations_inbound_http_conversations_controller_test_ts&#45;&gt;packages_agents_src_conversations_inbound_http_conversations_controller_ts</title>
<path fill="none" stroke="#64748b" stroke-width="1.2" d="M205.15,-32.6C205.15,-32.6 310.97,-32.6 310.97,-32.6"/>
<polygon fill="#64748b" stroke="#64748b" stroke-width="1.2" points="310.97,-35.05 317.97,-32.6 310.97,-30.15 310.97,-35.05"/>
</g>
<!-- packages_agents_src_conversations_inbound_http_request_validation_error_ts -->
<g id="node10" class="node">
<title>packages_agents_src_conversations_inbound_http_request_validation_error_ts</title>
<path fill="#ffffff" stroke="#94a3b8" d="M645.69,-66.2C645.69,-66.2 539.65,-66.2 539.65,-66.2 533.65,-66.2 527.65,-60.2 527.65,-54.2 527.65,-54.2 527.65,-27.8 527.65,-27.8 527.65,-21.8 533.65,-15.8 539.65,-15.8 539.65,-15.8 645.69,-15.8 645.69,-15.8 651.69,-15.8 657.69,-21.8 657.69,-27.8 657.69,-27.8 657.69,-54.2 657.69,-54.2 657.69,-60.2 651.69,-66.2 645.69,-66.2"/>
<text xml:space="preserve" text-anchor="middle" x="592.67" y="-50" font-family="Menlo" font-size="10.00">agents</text>
<text xml:space="preserve" text-anchor="middle" x="592.67" y="-38" font-family="Menlo" font-size="10.00">conversations</text>
<text xml:space="preserve" text-anchor="middle" x="592.67" y="-26" font-family="Menlo" font-size="10.00">request&#45;validation&#45;error.ts</text>
</g>
<!-- packages_agents_src_conversations_inbound_http_conversations_controller_ts&#45;&gt;packages_agents_src_conversations_inbound_http_request_validation_error_ts -->
<g id="edge8" class="edge">
<title>packages_agents_src_conversations_inbound_http_conversations_controller_ts&#45;&gt;packages_agents_src_conversations_inbound_http_request_validation_error_ts</title>
<path fill="none" stroke="#64748b" stroke-width="1.2" d="M452.73,-41C452.73,-41 518.6,-41 518.6,-41"/>
<polygon fill="#64748b" stroke="#64748b" stroke-width="1.2" points="518.6,-43.45 525.6,-41 518.6,-38.55 518.6,-43.45"/>
</g>
<!-- packages_agents_src_conversations_application_conversations_service_test_ts -->
<g id="node3" class="node">
<title>packages_agents_src_conversations_application_conversations_service_test_ts</title>
<path fill="#ffffff" stroke="#94a3b8" d="M187.52,-141.2C187.52,-141.2 73.41,-141.2 73.41,-141.2 67.41,-141.2 61.41,-135.2 61.41,-129.2 61.41,-129.2 61.41,-102.8 61.41,-102.8 61.41,-96.8 67.41,-90.8 73.41,-90.8 73.41,-90.8 187.52,-90.8 187.52,-90.8 193.52,-90.8 199.52,-96.8 199.52,-102.8 199.52,-102.8 199.52,-129.2 199.52,-129.2 199.52,-135.2 193.52,-141.2 187.52,-141.2"/>
<text xml:space="preserve" text-anchor="middle" x="130.46" y="-125" font-family="Menlo" font-size="10.00">agents</text>
<text xml:space="preserve" text-anchor="middle" x="130.46" y="-113" font-family="Menlo" font-size="10.00">conversations</text>
<text xml:space="preserve" text-anchor="middle" x="130.46" y="-101" font-family="Menlo" font-size="10.00">conversations&#45;service.test.ts</text>
</g>
<!-- packages_agents_src_conversations_application_conversations_service_ts -->
<g id="node4" class="node">
<title>packages_agents_src_conversations_application_conversations_service_ts</title>
<path fill="#ffffff" stroke="#94a3b8" d="M435.15,-141.2C435.15,-141.2 337.43,-141.2 337.43,-141.2 331.43,-141.2 325.43,-135.2 325.43,-129.2 325.43,-129.2 325.43,-102.8 325.43,-102.8 325.43,-96.8 331.43,-90.8 337.43,-90.8 337.43,-90.8 435.15,-90.8 435.15,-90.8 441.15,-90.8 447.15,-96.8 447.15,-102.8 447.15,-102.8 447.15,-129.2 447.15,-129.2 447.15,-135.2 441.15,-141.2 435.15,-141.2"/>
<text xml:space="preserve" text-anchor="middle" x="386.29" y="-125" font-family="Menlo" font-size="10.00">agents</text>
<text xml:space="preserve" text-anchor="middle" x="386.29" y="-113" font-family="Menlo" font-size="10.00">conversations</text>
<text xml:space="preserve" text-anchor="middle" x="386.29" y="-101" font-family="Menlo" font-size="10.00">conversations&#45;service.ts</text>
</g>
<!-- packages_agents_src_conversations_application_conversations_service_test_ts&#45;&gt;packages_agents_src_conversations_application_conversations_service_ts -->
<g id="edge1" class="edge">
<title>packages_agents_src_conversations_application_conversations_service_test_ts&#45;&gt;packages_agents_src_conversations_application_conversations_service_ts</title>
<path fill="none" stroke="#64748b" stroke-width="1.2" d="M199.69,-107.6C199.69,-107.6 316.47,-107.6 316.47,-107.6"/>
<polygon fill="#64748b" stroke="#64748b" stroke-width="1.2" points="316.47,-110.05 323.47,-107.6 316.47,-105.15 316.47,-110.05"/>
</g>
<!-- packages_agents_src_conversations_outbound_postgres_create_conv_store_pool_ts -->
<g id="node5" class="node">
<title>packages_agents_src_conversations_outbound_postgres_create_conv_store_pool_ts</title>
<path fill="#ffffff" stroke="#94a3b8" d="M437.09,-216.2C437.09,-216.2 335.49,-216.2 335.49,-216.2 329.49,-216.2 323.49,-210.2 323.49,-204.2 323.49,-204.2 323.49,-177.8 323.49,-177.8 323.49,-171.8 329.49,-165.8 335.49,-165.8 335.49,-165.8 437.09,-165.8 437.09,-165.8 443.09,-165.8 449.09,-171.8 449.09,-177.8 449.09,-177.8 449.09,-204.2 449.09,-204.2 449.09,-210.2 443.09,-216.2 437.09,-216.2"/>
<text xml:space="preserve" text-anchor="middle" x="386.29" y="-200" font-family="Menlo" font-size="10.00">agents</text>
<text xml:space="preserve" text-anchor="middle" x="386.29" y="-188" font-family="Menlo" font-size="10.00">conversations</text>
<text xml:space="preserve" text-anchor="middle" x="386.29" y="-176" font-family="Menlo" font-size="10.00">create&#45;conv&#45;store&#45;pool.ts</text>
</g>
<!-- packages_agents_src_conversations_outbound_postgres_postgres_conversation_repository_integration_test_ts -->
<g id="node6" class="node">
<title>packages_agents_src_conversations_outbound_postgres_postgres_conversation_repository_integration_test_ts</title>
<path fill="#ffffff" stroke="#94a3b8" d="M232.93,-291.2C232.93,-291.2 28,-291.2 28,-291.2 22,-291.2 16,-285.2 16,-279.2 16,-279.2 16,-252.8 16,-252.8 16,-246.8 22,-240.8 28,-240.8 28,-240.8 232.93,-240.8 232.93,-240.8 238.93,-240.8 244.93,-246.8 244.93,-252.8 244.93,-252.8 244.93,-279.2 244.93,-279.2 244.93,-285.2 238.93,-291.2 232.93,-291.2"/>
<text xml:space="preserve" text-anchor="middle" x="130.46" y="-275" font-family="Menlo" font-size="10.00">agents</text>
<text xml:space="preserve" text-anchor="middle" x="130.46" y="-263" font-family="Menlo" font-size="10.00">conversations</text>
<text xml:space="preserve" text-anchor="middle" x="130.46" y="-251" font-family="Menlo" font-size="10.00">postgres&#45;conversation&#45;repository.integration.test.ts</text>
</g>
<!-- packages_agents_src_conversations_outbound_postgres_postgres_conversation_repository_integration_test_ts&#45;&gt;packages_agents_src_conversations_outbound_postgres_create_conv_store_pool_ts -->
<g id="edge10" class="edge">
<title>packages_agents_src_conversations_outbound_postgres_postgres_conversation_repository_integration_test_ts&#45;&gt;packages_agents_src_conversations_outbound_postgres_create_conv_store_pool_ts</title>
<path fill="none" stroke="#64748b" stroke-width="1.2" d="M235.27,-240.63C235.27,-220.1 235.27,-194.6 235.27,-194.6 235.27,-194.6 314.3,-194.6 314.3,-194.6"/>
<polygon fill="#64748b" stroke="#64748b" stroke-width="1.2" points="314.3,-197.05 321.3,-194.6 314.3,-192.15 314.3,-197.05"/>
</g>
<!-- packages_agents_src_conversations_outbound_postgres_postgres_conversation_repository_ts -->
<g id="node7" class="node">
<title>packages_agents_src_conversations_outbound_postgres_postgres_conversation_repository_ts</title>
<path fill="#ffffff" stroke="#94a3b8" d="M457.65,-291.2C457.65,-291.2 314.93,-291.2 314.93,-291.2 308.93,-291.2 302.93,-285.2 302.93,-279.2 302.93,-279.2 302.93,-252.8 302.93,-252.8 302.93,-246.8 308.93,-240.8 314.93,-240.8 314.93,-240.8 457.65,-240.8 457.65,-240.8 463.65,-240.8 469.65,-246.8 469.65,-252.8 469.65,-252.8 469.65,-279.2 469.65,-279.2 469.65,-285.2 463.65,-291.2 457.65,-291.2"/>
<text xml:space="preserve" text-anchor="middle" x="386.29" y="-275" font-family="Menlo" font-size="10.00">agents</text>
<text xml:space="preserve" text-anchor="middle" x="386.29" y="-263" font-family="Menlo" font-size="10.00">conversations</text>
<text xml:space="preserve" text-anchor="middle" x="386.29" y="-251" font-family="Menlo" font-size="10.00">postgres&#45;conversation&#45;repository.ts</text>
</g>
<!-- packages_agents_src_conversations_outbound_postgres_postgres_conversation_repository_integration_test_ts&#45;&gt;packages_agents_src_conversations_outbound_postgres_postgres_conversation_repository_ts -->
<g id="edge11" class="edge">
<title>packages_agents_src_conversations_outbound_postgres_postgres_conversation_repository_integration_test_ts&#45;&gt;packages_agents_src_conversations_outbound_postgres_postgres_conversation_repository_ts</title>
<path fill="none" stroke="#64748b" stroke-width="1.2" d="M245.28,-266C245.28,-266 293.67,-266 293.67,-266"/>
<polygon fill="#64748b" stroke="#64748b" stroke-width="1.2" points="293.67,-268.45 300.67,-266 293.67,-263.55 293.67,-268.45"/>
</g>
<!-- packages_agents_src_conversations_outbound_blob_r2_blob_store_test_ts -->
<g id="node8" class="node">
<title>packages_agents_src_conversations_outbound_blob_r2_blob_store_test_ts</title>
<path fill="#ffffff" stroke="#94a3b8" d="M170.31,-366.2C170.31,-366.2 90.62,-366.2 90.62,-366.2 84.62,-366.2 78.62,-360.2 78.62,-354.2 78.62,-354.2 78.62,-327.8 78.62,-327.8 78.62,-321.8 84.62,-315.8 90.62,-315.8 90.62,-315.8 170.31,-315.8 170.31,-315.8 176.31,-315.8 182.31,-321.8 182.31,-327.8 182.31,-327.8 182.31,-354.2 182.31,-354.2 182.31,-360.2 176.31,-366.2 170.31,-366.2"/>
<text xml:space="preserve" text-anchor="middle" x="130.46" y="-350" font-family="Menlo" font-size="10.00">agents</text>
<text xml:space="preserve" text-anchor="middle" x="130.46" y="-338" font-family="Menlo" font-size="10.00">conversations</text>
<text xml:space="preserve" text-anchor="middle" x="130.46" y="-326" font-family="Menlo" font-size="10.00">r2&#45;blob&#45;store.test.ts</text>
</g>
<!-- packages_agents_src_conversations_outbound_blob_r2_blob_store_ts -->
<g id="node9" class="node">
<title>packages_agents_src_conversations_outbound_blob_r2_blob_store_ts</title>
<path fill="#ffffff" stroke="#94a3b8" d="M417.94,-366.2C417.94,-366.2 354.64,-366.2 354.64,-366.2 348.64,-366.2 342.64,-360.2 342.64,-354.2 342.64,-354.2 342.64,-327.8 342.64,-327.8 342.64,-321.8 348.64,-315.8 354.64,-315.8 354.64,-315.8 417.94,-315.8 417.94,-315.8 423.94,-315.8 429.94,-321.8 429.94,-327.8 429.94,-327.8 429.94,-354.2 429.94,-354.2 429.94,-360.2 423.94,-366.2 417.94,-366.2"/>
<text xml:space="preserve" text-anchor="middle" x="386.29" y="-350" font-family="Menlo" font-size="10.00">agents</text>
<text xml:space="preserve" text-anchor="middle" x="386.29" y="-338" font-family="Menlo" font-size="10.00">conversations</text>
<text xml:space="preserve" text-anchor="middle" x="386.29" y="-326" font-family="Menlo" font-size="10.00">r2&#45;blob&#45;store.ts</text>
</g>
<!-- packages_agents_src_conversations_outbound_blob_r2_blob_store_test_ts&#45;&gt;packages_agents_src_conversations_outbound_blob_r2_blob_store_ts -->
<g id="edge9" class="edge">
<title>packages_agents_src_conversations_outbound_blob_r2_blob_store_test_ts&#45;&gt;packages_agents_src_conversations_outbound_blob_r2_blob_store_ts</title>
<path fill="none" stroke="#64748b" stroke-width="1.2" d="M182.54,-349.4C182.54,-349.4 333.56,-349.4 333.56,-349.4"/>
<polygon fill="#64748b" stroke="#64748b" stroke-width="1.2" points="333.56,-351.85 340.56,-349.4 333.56,-346.95 333.56,-351.85"/>
</g>
<!-- packages_agents_src_conversations_bootstrap_server_ts -->
<g id="node11" class="node">
<title>packages_agents_src_conversations_bootstrap_server_ts</title>
<path fill="#ffffff" stroke="#94a3b8" d="M158.92,-216.2C158.92,-216.2 102.01,-216.2 102.01,-216.2 96.01,-216.2 90.01,-210.2 90.01,-204.2 90.01,-204.2 90.01,-177.8 90.01,-177.8 90.01,-171.8 96.01,-165.8 102.01,-165.8 102.01,-165.8 158.92,-165.8 158.92,-165.8 164.92,-165.8 170.92,-171.8 170.92,-177.8 170.92,-177.8 170.92,-204.2 170.92,-204.2 170.92,-210.2 164.92,-216.2 158.92,-216.2"/>
<text xml:space="preserve" text-anchor="middle" x="130.46" y="-200" font-family="Menlo" font-size="10.00">agents</text>
<text xml:space="preserve" text-anchor="middle" x="130.46" y="-188" font-family="Menlo" font-size="10.00">conversations</text>
<text xml:space="preserve" text-anchor="middle" x="130.46" y="-176" font-family="Menlo" font-size="10.00">server.ts</text>
</g>
<!-- packages_agents_src_conversations_bootstrap_server_ts&#45;&gt;packages_agents_src_conversations_inbound_http_conversations_controller_ts -->
<g id="edge3" class="edge">
<title>packages_agents_src_conversations_bootstrap_server_ts&#45;&gt;packages_agents_src_conversations_inbound_http_conversations_controller_ts</title>
<path fill="none" stroke="#64748b" stroke-width="1.2" d="M171.38,-173C193.06,-173 215.27,-173 215.27,-173 215.27,-173 215.27,-49.4 215.27,-49.4 215.27,-49.4 310.86,-49.4 310.86,-49.4"/>
<polygon fill="#64748b" stroke="#64748b" stroke-width="1.2" points="310.86,-51.85 317.86,-49.4 310.86,-46.95 310.86,-51.85"/>
</g>
<!-- packages_agents_src_conversations_bootstrap_server_ts&#45;&gt;packages_agents_src_conversations_application_conversations_service_ts -->
<g id="edge2" class="edge">
<title>packages_agents_src_conversations_bootstrap_server_ts&#45;&gt;packages_agents_src_conversations_application_conversations_service_ts</title>
<path fill="none" stroke="#64748b" stroke-width="1.2" d="M171.22,-180.2C196.92,-180.2 225.27,-180.2 225.27,-180.2 225.27,-180.2 225.27,-124.4 225.27,-124.4 225.27,-124.4 316.14,-124.4 316.14,-124.4"/>
<polygon fill="#64748b" stroke="#64748b" stroke-width="1.2" points="316.14,-126.85 323.14,-124.4 316.14,-121.95 316.14,-126.85"/>
</g>
<!-- packages_agents_src_conversations_bootstrap_server_ts&#45;&gt;packages_agents_src_conversations_outbound_postgres_create_conv_store_pool_ts -->
<g id="edge5" class="edge">
<title>packages_agents_src_conversations_bootstrap_server_ts&#45;&gt;packages_agents_src_conversations_outbound_postgres_create_conv_store_pool_ts</title>
<path fill="none" stroke="#64748b" stroke-width="1.2" d="M171.28,-187.4C171.28,-187.4 314.33,-187.4 314.33,-187.4"/>
<polygon fill="#64748b" stroke="#64748b" stroke-width="1.2" points="314.33,-189.85 321.33,-187.4 314.33,-184.95 314.33,-189.85"/>
</g>
<!-- packages_agents_src_conversations_bootstrap_server_ts&#45;&gt;packages_agents_src_conversations_outbound_postgres_postgres_conversation_repository_ts -->
<g id="edge6" class="edge">
<title>packages_agents_src_conversations_bootstrap_server_ts&#45;&gt;packages_agents_src_conversations_outbound_postgres_postgres_conversation_repository_ts</title>
<path fill="none" stroke="#64748b" stroke-width="1.2" d="M171.04,-201.8C224.35,-201.8 311.27,-201.8 311.27,-201.8 311.27,-201.8 311.27,-231.81 311.27,-231.81"/>
<polygon fill="#64748b" stroke="#64748b" stroke-width="1.2" points="308.82,-231.81 311.27,-238.81 313.72,-231.81 308.82,-231.81"/>
</g>
<!-- packages_agents_src_conversations_bootstrap_server_ts&#45;&gt;packages_agents_src_conversations_outbound_blob_r2_blob_store_ts -->
<g id="edge4" class="edge">
<title>packages_agents_src_conversations_bootstrap_server_ts&#45;&gt;packages_agents_src_conversations_outbound_blob_r2_blob_store_ts</title>
<path fill="none" stroke="#64748b" stroke-width="1.2" d="M171.29,-209C213.8,-209 274.27,-209 274.27,-209 274.27,-209 274.27,-332.6 274.27,-332.6 274.27,-332.6 333.52,-332.6 333.52,-332.6"/>
<polygon fill="#64748b" stroke="#64748b" stroke-width="1.2" points="333.52,-335.05 340.52,-332.6 333.52,-330.15 333.52,-335.05"/>
</g>
<!-- packages_agents_src_kb_curate_agent_application_knowledge_curation_service_ts -->
<g id="node12" class="node">
<title>packages_agents_src_kb_curate_agent_application_knowledge_curation_service_ts</title>
<path fill="#ffffff" stroke="#94a3b8" d="M447.64,-441.2C447.64,-441.2 324.94,-441.2 324.94,-441.2 318.94,-441.2 312.94,-435.2 312.94,-429.2 312.94,-429.2 312.94,-402.8 312.94,-402.8 312.94,-396.8 318.94,-390.8 324.94,-390.8 324.94,-390.8 447.64,-390.8 447.64,-390.8 453.64,-390.8 459.64,-396.8 459.64,-402.8 459.64,-402.8 459.64,-429.2 459.64,-429.2 459.64,-435.2 453.64,-441.2 447.64,-441.2"/>
<text xml:space="preserve" text-anchor="middle" x="386.29" y="-425" font-family="Menlo" font-size="10.00">agents</text>
<text xml:space="preserve" text-anchor="middle" x="386.29" y="-413" font-family="Menlo" font-size="10.00">kb&#45;curate&#45;agent</text>
<text xml:space="preserve" text-anchor="middle" x="386.29" y="-401" font-family="Menlo" font-size="10.00">knowledge&#45;curation&#45;service.ts</text>
</g>
<!-- packages_agents_src_kb_curate_agent_inbound_http_server_ts -->
<g id="node13" class="node">
<title>packages_agents_src_kb_curate_agent_inbound_http_server_ts</title>
<path fill="#ffffff" stroke="#94a3b8" d="M162.79,-441.2C162.79,-441.2 98.13,-441.2 98.13,-441.2 92.13,-441.2 86.13,-435.2 86.13,-429.2 86.13,-429.2 86.13,-402.8 86.13,-402.8 86.13,-396.8 92.13,-390.8 98.13,-390.8 98.13,-390.8 162.79,-390.8 162.79,-390.8 168.79,-390.8 174.79,-396.8 174.79,-402.8 174.79,-402.8 174.79,-429.2 174.79,-429.2 174.79,-435.2 168.79,-441.2 162.79,-441.2"/>
<text xml:space="preserve" text-anchor="middle" x="130.46" y="-425" font-family="Menlo" font-size="10.00">agents</text>
<text xml:space="preserve" text-anchor="middle" x="130.46" y="-413" font-family="Menlo" font-size="10.00">kb&#45;curate&#45;agent</text>
<text xml:space="preserve" text-anchor="middle" x="130.46" y="-401" font-family="Menlo" font-size="10.00">server.ts</text>
</g>
<!-- packages_agents_src_kb_curate_agent_inbound_http_server_ts&#45;&gt;packages_agents_src_kb_curate_agent_application_knowledge_curation_service_ts -->
<g id="edge12" class="edge">
<title>packages_agents_src_kb_curate_agent_inbound_http_server_ts&#45;&gt;packages_agents_src_kb_curate_agent_application_knowledge_curation_service_ts</title>
<path fill="none" stroke="#64748b" stroke-width="1.2" d="M175.03,-416C175.03,-416 303.64,-416 303.64,-416"/>
<polygon fill="#64748b" stroke="#64748b" stroke-width="1.2" points="303.64,-418.45 310.64,-416 303.64,-413.55 303.64,-418.45"/>
</g>
<!-- packages_agents_src_planning_agent_server_ts -->
<g id="node14" class="node">
<title>packages_agents_src_planning_agent_server_ts</title>
<path fill="#ffffff" stroke="#94a3b8" d="M161.41,-516.2C161.41,-516.2 99.51,-516.2 99.51,-516.2 93.51,-516.2 87.51,-510.2 87.51,-504.2 87.51,-504.2 87.51,-477.8 87.51,-477.8 87.51,-471.8 93.51,-465.8 99.51,-465.8 99.51,-465.8 161.41,-465.8 161.41,-465.8 167.41,-465.8 173.41,-471.8 173.41,-477.8 173.41,-477.8 173.41,-504.2 173.41,-504.2 173.41,-510.2 167.41,-516.2 161.41,-516.2"/>
<text xml:space="preserve" text-anchor="middle" x="130.46" y="-500" font-family="Menlo" font-size="10.00">agents</text>
<text xml:space="preserve" text-anchor="middle" x="130.46" y="-488" font-family="Menlo" font-size="10.00">planning&#45;agent</text>
<text xml:space="preserve" text-anchor="middle" x="130.46" y="-476" font-family="Menlo" font-size="10.00">server.ts</text>
</g>
<!-- packages_domain_contracts_src_application_error_ts -->
<g id="node15" class="node">
<title>packages_domain_contracts_src_application_error_ts</title>
<path fill="#ffffff" stroke="#94a3b8" d="M169.6,-615.2C169.6,-615.2 91.33,-615.2 91.33,-615.2 85.33,-615.2 79.33,-609.2 79.33,-603.2 79.33,-603.2 79.33,-576.8 79.33,-576.8 79.33,-570.8 85.33,-564.8 91.33,-564.8 91.33,-564.8 169.6,-564.8 169.6,-564.8 175.6,-564.8 181.6,-570.8 181.6,-576.8 181.6,-576.8 181.6,-603.2 181.6,-603.2 181.6,-609.2 175.6,-615.2 169.6,-615.2"/>
<text xml:space="preserve" text-anchor="middle" x="130.46" y="-599" font-family="Menlo" font-size="10.00">domain/contracts</text>
<text xml:space="preserve" text-anchor="middle" x="130.46" y="-587" font-family="Menlo" font-size="10.00">application&#45;error.ts</text>
<text xml:space="preserve" text-anchor="middle" x="130.46" y="-575" font-family="Menlo" font-size="10.00">application&#45;error.ts</text>
</g>
<!-- packages_domain_contracts_src_conversations_ts -->
<g id="node16" class="node">
<title>packages_domain_contracts_src_conversations_ts</title>
<path fill="#ffffff" stroke="#94a3b8" d="M165.86,-690.2C165.86,-690.2 95.07,-690.2 95.07,-690.2 89.07,-690.2 83.07,-684.2 83.07,-678.2 83.07,-678.2 83.07,-651.8 83.07,-651.8 83.07,-645.8 89.07,-639.8 95.07,-639.8 95.07,-639.8 165.86,-639.8 165.86,-639.8 171.86,-639.8 177.86,-645.8 177.86,-651.8 177.86,-651.8 177.86,-678.2 177.86,-678.2 177.86,-684.2 171.86,-690.2 165.86,-690.2"/>
<text xml:space="preserve" text-anchor="middle" x="130.46" y="-674" font-family="Menlo" font-size="10.00">domain/contracts</text>
<text xml:space="preserve" text-anchor="middle" x="130.46" y="-662" font-family="Menlo" font-size="10.00">conversations.ts</text>
<text xml:space="preserve" text-anchor="middle" x="130.46" y="-650" font-family="Menlo" font-size="10.00">conversations.ts</text>
</g>
<!-- packages_domain_contracts_src_knowledge_curation_ts -->
<g id="node17" class="node">
<title>packages_domain_contracts_src_knowledge_curation_ts</title>
<path fill="#ffffff" stroke="#94a3b8" d="M175.99,-765.2C175.99,-765.2 84.93,-765.2 84.93,-765.2 78.93,-765.2 72.93,-759.2 72.93,-753.2 72.93,-753.2 72.93,-726.8 72.93,-726.8 72.93,-720.8 78.93,-714.8 84.93,-714.8 84.93,-714.8 175.99,-714.8 175.99,-714.8 181.99,-714.8 187.99,-720.8 187.99,-726.8 187.99,-726.8 187.99,-753.2 187.99,-753.2 187.99,-759.2 181.99,-765.2 175.99,-765.2"/>
<text xml:space="preserve" text-anchor="middle" x="130.46" y="-749" font-family="Menlo" font-size="10.00">domain/contracts</text>
<text xml:space="preserve" text-anchor="middle" x="130.46" y="-737" font-family="Menlo" font-size="10.00">knowledge&#45;curation.ts</text>
<text xml:space="preserve" text-anchor="middle" x="130.46" y="-725" font-family="Menlo" font-size="10.00">knowledge&#45;curation.ts</text>
</g>
<!-- packages_domain_entities_src_aggregates_conversation_ts -->
<g id="node18" class="node">
<title>packages_domain_entities_src_aggregates_conversation_ts</title>
<path fill="#ffffff" stroke="#94a3b8" d="M418.08,-901.2C418.08,-901.2 354.5,-901.2 354.5,-901.2 348.5,-901.2 342.5,-895.2 342.5,-889.2 342.5,-889.2 342.5,-862.8 342.5,-862.8 342.5,-856.8 348.5,-850.8 354.5,-850.8 354.5,-850.8 418.08,-850.8 418.08,-850.8 424.08,-850.8 430.08,-856.8 430.08,-862.8 430.08,-862.8 430.08,-889.2 430.08,-889.2 430.08,-895.2 424.08,-901.2 418.08,-901.2"/>
<text xml:space="preserve" text-anchor="middle" x="386.29" y="-885" font-family="Menlo" font-size="10.00">domain/entities</text>
<text xml:space="preserve" text-anchor="middle" x="386.29" y="-873" font-family="Menlo" font-size="10.00">aggregates</text>
<text xml:space="preserve" text-anchor="middle" x="386.29" y="-861" font-family="Menlo" font-size="10.00">conversation.ts</text>
</g>
<!-- packages_domain_entities_src_aggregates_domain_events_ts -->
<g id="node19" class="node">
<title>packages_domain_entities_src_aggregates_domain_events_ts</title>
<path fill="#ffffff" stroke="#94a3b8" d="M627.65,-939.2C627.65,-939.2 557.69,-939.2 557.69,-939.2 551.69,-939.2 545.69,-933.2 545.69,-927.2 545.69,-927.2 545.69,-900.8 545.69,-900.8 545.69,-894.8 551.69,-888.8 557.69,-888.8 557.69,-888.8 627.65,-888.8 627.65,-888.8 633.65,-888.8 639.65,-894.8 639.65,-900.8 639.65,-900.8 639.65,-927.2 639.65,-927.2 639.65,-933.2 633.65,-939.2 627.65,-939.2"/>
<text xml:space="preserve" text-anchor="middle" x="592.67" y="-923" font-family="Menlo" font-size="10.00">domain/entities</text>
<text xml:space="preserve" text-anchor="middle" x="592.67" y="-911" font-family="Menlo" font-size="10.00">aggregates</text>
<text xml:space="preserve" text-anchor="middle" x="592.67" y="-899" font-family="Menlo" font-size="10.00">domain&#45;events.ts</text>
</g>
<!-- packages_domain_entities_src_aggregates_conversation_ts&#45;&gt;packages_domain_entities_src_aggregates_domain_events_ts -->
<g id="edge13" class="edge">
<title>packages_domain_entities_src_aggregates_conversation_ts&#45;&gt;packages_domain_entities_src_aggregates_domain_events_ts</title>
<path fill="none" stroke="#64748b" stroke-width="1.2" d="M430.56,-895C430.56,-895 536.42,-895 536.42,-895"/>
<polygon fill="#64748b" stroke="#64748b" stroke-width="1.2" points="536.42,-897.45 543.42,-895 536.42,-892.55 536.42,-897.45"/>
</g>
<!-- packages_domain_entities_src_entities_attachment_ts -->
<g id="node20" class="node">
<title>packages_domain_entities_src_entities_attachment_ts</title>
<path fill="#ffffff" stroke="#94a3b8" d="M791.27,-927.2C791.27,-927.2 727.69,-927.2 727.69,-927.2 721.69,-927.2 715.69,-921.2 715.69,-915.2 715.69,-915.2 715.69,-888.8 715.69,-888.8 715.69,-882.8 721.69,-876.8 727.69,-876.8 727.69,-876.8 791.27,-876.8 791.27,-876.8 797.27,-876.8 803.27,-882.8 803.27,-888.8 803.27,-888.8 803.27,-915.2 803.27,-915.2 803.27,-921.2 797.27,-927.2 791.27,-927.2"/>
<text xml:space="preserve" text-anchor="middle" x="759.48" y="-911" font-family="Menlo" font-size="10.00">domain/entities</text>
<text xml:space="preserve" text-anchor="middle" x="759.48" y="-899" font-family="Menlo" font-size="10.00">entities</text>
<text xml:space="preserve" text-anchor="middle" x="759.48" y="-887" font-family="Menlo" font-size="10.00">attachment.ts</text>
</g>
<!-- packages_domain_entities_src_aggregates_conversation_ts&#45;&gt;packages_domain_entities_src_entities_attachment_ts -->
<g id="edge15" class="edge">
<title>packages_domain_entities_src_aggregates_conversation_ts&#45;&gt;packages_domain_entities_src_entities_attachment_ts</title>
<path fill="none" stroke="#64748b" stroke-width="1.2" d="M430.56,-884.8C430.56,-884.8 706.45,-884.8 706.45,-884.8"/>
<polygon fill="#64748b" stroke="#64748b" stroke-width="1.2" points="706.45,-887.25 713.45,-884.8 706.45,-882.35 706.45,-887.25"/>
</g>
<!-- packages_domain_entities_src_entities_message_ts -->
<g id="node21" class="node">
<title>packages_domain_entities_src_entities_message_ts</title>
<path fill="#ffffff" stroke="#94a3b8" d="M624.46,-864.2C624.46,-864.2 560.88,-864.2 560.88,-864.2 554.88,-864.2 548.88,-858.2 548.88,-852.2 548.88,-852.2 548.88,-825.8 548.88,-825.8 548.88,-819.8 554.88,-813.8 560.88,-813.8 560.88,-813.8 624.46,-813.8 624.46,-813.8 630.46,-813.8 636.46,-819.8 636.46,-825.8 636.46,-825.8 636.46,-852.2 636.46,-852.2 636.46,-858.2 630.46,-864.2 624.46,-864.2"/>
<text xml:space="preserve" text-anchor="middle" x="592.67" y="-848" font-family="Menlo" font-size="10.00">domain/entities</text>
<text xml:space="preserve" text-anchor="middle" x="592.67" y="-836" font-family="Menlo" font-size="10.00">entities</text>
<text xml:space="preserve" text-anchor="middle" x="592.67" y="-824" font-family="Menlo" font-size="10.00">message.ts</text>
</g>
<!-- packages_domain_entities_src_aggregates_conversation_ts&#45;&gt;packages_domain_entities_src_entities_message_ts -->
<g id="edge14" class="edge">
<title>packages_domain_entities_src_aggregates_conversation_ts&#45;&gt;packages_domain_entities_src_entities_message_ts</title>
<path fill="none" stroke="#64748b" stroke-width="1.2" d="M430.56,-857.5C430.56,-857.5 539.65,-857.5 539.65,-857.5"/>
<polygon fill="#64748b" stroke="#64748b" stroke-width="1.2" points="539.65,-859.95 546.65,-857.5 539.65,-855.05 539.65,-859.95"/>
</g>
<!-- packages_domain_entities_src_entities_message_ts&#45;&gt;packages_domain_entities_src_entities_attachment_ts -->
<g id="edge16" class="edge">
<title>packages_domain_entities_src_entities_message_ts&#45;&gt;packages_domain_entities_src_entities_attachment_ts</title>
<path fill="none" stroke="#64748b" stroke-width="1.2" d="M592.27,-864.28C592.27,-873.08 592.27,-880.8 592.27,-880.8 592.27,-880.8 706.73,-880.8 706.73,-880.8"/>
<polygon fill="#64748b" stroke="#64748b" stroke-width="1.2" points="706.73,-883.25 713.73,-880.8 706.73,-878.35 706.73,-883.25"/>
</g>
<!-- packages_domain_entities_src_ports_ts -->
<g id="node22" class="node">
<title>packages_domain_entities_src_ports_ts</title>
<path fill="#ffffff" stroke="#94a3b8" d="M162.25,-864.2C162.25,-864.2 98.68,-864.2 98.68,-864.2 92.68,-864.2 86.68,-858.2 86.68,-852.2 86.68,-852.2 86.68,-825.8 86.68,-825.8 86.68,-819.8 92.68,-813.8 98.68,-813.8 98.68,-813.8 162.25,-813.8 162.25,-813.8 168.25,-813.8 174.25,-819.8 174.25,-825.8 174.25,-825.8 174.25,-852.2 174.25,-852.2 174.25,-858.2 168.25,-864.2 162.25,-864.2"/>
<text xml:space="preserve" text-anchor="middle" x="130.46" y="-848" font-family="Menlo" font-size="10.00">domain/entities</text>
<text xml:space="preserve" text-anchor="middle" x="130.46" y="-836" font-family="Menlo" font-size="10.00">ports.ts</text>
<text xml:space="preserve" text-anchor="middle" x="130.46" y="-824" font-family="Menlo" font-size="10.00">ports.ts</text>
</g>
<!-- packages_domain_entities_src_ports_ts&#45;&gt;packages_domain_entities_src_aggregates_conversation_ts -->
<g id="edge17" class="edge">
<title>packages_domain_entities_src_ports_ts&#45;&gt;packages_domain_entities_src_aggregates_conversation_ts</title>
<path fill="none" stroke="#64748b" stroke-width="1.2" d="M174.73,-857.5C174.73,-857.5 333.32,-857.5 333.32,-857.5"/>
<polygon fill="#64748b" stroke="#64748b" stroke-width="1.2" points="333.32,-859.95 340.32,-857.5 333.32,-855.05 333.32,-859.95"/>
</g>
<!-- packages_domain_entities_src_value_objects_attachment_id_ts -->
<g id="node23" class="node">
<title>packages_domain_entities_src_value_objects_attachment_id_ts</title>
<path fill="#ffffff" stroke="#94a3b8" d="M163.5,-939.2C163.5,-939.2 97.43,-939.2 97.43,-939.2 91.43,-939.2 85.43,-933.2 85.43,-927.2 85.43,-927.2 85.43,-900.8 85.43,-900.8 85.43,-894.8 91.43,-888.8 97.43,-888.8 97.43,-888.8 163.5,-888.8 163.5,-888.8 169.5,-888.8 175.5,-894.8 175.5,-900.8 175.5,-900.8 175.5,-927.2 175.5,-927.2 175.5,-933.2 169.5,-939.2 163.5,-939.2"/>
<text xml:space="preserve" text-anchor="middle" x="130.46" y="-923" font-family="Menlo" font-size="10.00">domain/entities</text>
<text xml:space="preserve" text-anchor="middle" x="130.46" y="-911" font-family="Menlo" font-size="10.00">value&#45;objects</text>
<text xml:space="preserve" text-anchor="middle" x="130.46" y="-899" font-family="Menlo" font-size="10.00">attachment&#45;id.ts</text>
</g>
<!-- packages_domain_entities_src_value_objects_string_value_object_ts -->
<g id="node28" class="node">
<title>packages_domain_entities_src_value_objects_string_value_object_ts</title>
<path fill="#ffffff" stroke="#94a3b8" d="M429.6,-1014.2C429.6,-1014.2 342.98,-1014.2 342.98,-1014.2 336.98,-1014.2 330.98,-1008.2 330.98,-1002.2 330.98,-1002.2 330.98,-975.8 330.98,-975.8 330.98,-969.8 336.98,-963.8 342.98,-963.8 342.98,-963.8 429.6,-963.8 429.6,-963.8 435.6,-963.8 441.6,-969.8 441.6,-975.8 441.6,-975.8 441.6,-1002.2 441.6,-1002.2 441.6,-1008.2 435.6,-1014.2 429.6,-1014.2"/>
<text xml:space="preserve" text-anchor="middle" x="386.29" y="-998" font-family="Menlo" font-size="10.00">domain/entities</text>
<text xml:space="preserve" text-anchor="middle" x="386.29" y="-986" font-family="Menlo" font-size="10.00">value&#45;objects</text>
<text xml:space="preserve" text-anchor="middle" x="386.29" y="-974" font-family="Menlo" font-size="10.00">string&#45;value&#45;object.ts</text>
</g>
<!-- packages_domain_entities_src_value_objects_attachment_id_ts&#45;&gt;packages_domain_entities_src_value_objects_string_value_object_ts -->
<g id="edge18" class="edge">
<title>packages_domain_entities_src_value_objects_attachment_id_ts&#45;&gt;packages_domain_entities_src_value_objects_string_value_object_ts</title>
<path fill="none" stroke="#64748b" stroke-width="1.2" d="M175.88,-920.2C236.49,-920.2 336.27,-920.2 336.27,-920.2 336.27,-920.2 336.27,-954.57 336.27,-954.57"/>
<polygon fill="#64748b" stroke="#64748b" stroke-width="1.2" points="333.82,-954.57 336.27,-961.57 338.72,-954.57 333.82,-954.57"/>
</g>
<!-- packages_domain_entities_src_value_objects_conversation_id_ts -->
<g id="node24" class="node">
<title>packages_domain_entities_src_value_objects_conversation_id_ts</title>
<path fill="#ffffff" stroke="#94a3b8" d="M167.11,-1014.2C167.11,-1014.2 93.82,-1014.2 93.82,-1014.2 87.82,-1014.2 81.82,-1008.2 81.82,-1002.2 81.82,-1002.2 81.82,-975.8 81.82,-975.8 81.82,-969.8 87.82,-963.8 93.82,-963.8 93.82,-963.8 167.11,-963.8 167.11,-963.8 173.11,-963.8 179.11,-969.8 179.11,-975.8 179.11,-975.8 179.11,-1002.2 179.11,-1002.2 179.11,-1008.2 173.11,-1014.2 167.11,-1014.2"/>
<text xml:space="preserve" text-anchor="middle" x="130.46" y="-998" font-family="Menlo" font-size="10.00">domain/entities</text>
<text xml:space="preserve" text-anchor="middle" x="130.46" y="-986" font-family="Menlo" font-size="10.00">value&#45;objects</text>
<text xml:space="preserve" text-anchor="middle" x="130.46" y="-974" font-family="Menlo" font-size="10.00">conversation&#45;id.ts</text>
</g>
<!-- packages_domain_entities_src_value_objects_conversation_id_ts&#45;&gt;packages_domain_entities_src_value_objects_string_value_object_ts -->
<g id="edge19" class="edge">
<title>packages_domain_entities_src_value_objects_conversation_id_ts&#45;&gt;packages_domain_entities_src_value_objects_string_value_object_ts</title>
<path fill="none" stroke="#64748b" stroke-width="1.2" d="M179.49,-989C179.49,-989 321.95,-989 321.95,-989"/>
<polygon fill="#64748b" stroke="#64748b" stroke-width="1.2" points="321.95,-991.45 328.95,-989 321.95,-986.55 321.95,-991.45"/>
</g>
<!-- packages_domain_entities_src_value_objects_message_id_ts -->
<g id="node25" class="node">
<title>packages_domain_entities_src_value_objects_message_id_ts</title>
<path fill="#ffffff" stroke="#94a3b8" d="M162.25,-1089.2C162.25,-1089.2 98.68,-1089.2 98.68,-1089.2 92.68,-1089.2 86.68,-1083.2 86.68,-1077.2 86.68,-1077.2 86.68,-1050.8 86.68,-1050.8 86.68,-1044.8 92.68,-1038.8 98.68,-1038.8 98.68,-1038.8 162.25,-1038.8 162.25,-1038.8 168.25,-1038.8 174.25,-1044.8 174.25,-1050.8 174.25,-1050.8 174.25,-1077.2 174.25,-1077.2 174.25,-1083.2 168.25,-1089.2 162.25,-1089.2"/>
<text xml:space="preserve" text-anchor="middle" x="130.46" y="-1073" font-family="Menlo" font-size="10.00">domain/entities</text>
<text xml:space="preserve" text-anchor="middle" x="130.46" y="-1061" font-family="Menlo" font-size="10.00">value&#45;objects</text>
<text xml:space="preserve" text-anchor="middle" x="130.46" y="-1049" font-family="Menlo" font-size="10.00">message&#45;id.ts</text>
</g>
<!-- packages_domain_entities_src_value_objects_message_id_ts&#45;&gt;packages_domain_entities_src_value_objects_string_value_object_ts -->
<g id="edge20" class="edge">
<title>packages_domain_entities_src_value_objects_message_id_ts&#45;&gt;packages_domain_entities_src_value_objects_string_value_object_ts</title>
<path fill="none" stroke="#64748b" stroke-width="1.2" d="M174.51,-1064C237.09,-1064 344.27,-1064 344.27,-1064 344.27,-1064 344.27,-1023.21 344.27,-1023.21"/>
<polygon fill="#64748b" stroke="#64748b" stroke-width="1.2" points="346.72,-1023.21 344.27,-1016.21 341.82,-1023.21 346.72,-1023.21"/>
</g>
<!-- packages_domain_entities_src_value_objects_message_role_ts -->
<g id="node26" class="node">
<title>packages_domain_entities_src_value_objects_message_role_ts</title>
<path fill="#ffffff" stroke="#94a3b8" d="M162.39,-1164.2C162.39,-1164.2 98.54,-1164.2 98.54,-1164.2 92.54,-1164.2 86.54,-1158.2 86.54,-1152.2 86.54,-1152.2 86.54,-1125.8 86.54,-1125.8 86.54,-1119.8 92.54,-1113.8 98.54,-1113.8 98.54,-1113.8 162.39,-1113.8 162.39,-1113.8 168.39,-1113.8 174.39,-1119.8 174.39,-1125.8 174.39,-1125.8 174.39,-1152.2 174.39,-1152.2 174.39,-1158.2 168.39,-1164.2 162.39,-1164.2"/>
<text xml:space="preserve" text-anchor="middle" x="130.46" y="-1148" font-family="Menlo" font-size="10.00">domain/entities</text>
<text xml:space="preserve" text-anchor="middle" x="130.46" y="-1136" font-family="Menlo" font-size="10.00">value&#45;objects</text>
<text xml:space="preserve" text-anchor="middle" x="130.46" y="-1124" font-family="Menlo" font-size="10.00">message&#45;role.ts</text>
</g>
<!-- packages_domain_entities_src_value_objects_message_text_ts -->
<g id="node27" class="node">
<title>packages_domain_entities_src_value_objects_message_text_ts</title>
<path fill="#ffffff" stroke="#94a3b8" d="M162.25,-1239.2C162.25,-1239.2 98.68,-1239.2 98.68,-1239.2 92.68,-1239.2 86.68,-1233.2 86.68,-1227.2 86.68,-1227.2 86.68,-1200.8 86.68,-1200.8 86.68,-1194.8 92.68,-1188.8 98.68,-1188.8 98.68,-1188.8 162.25,-1188.8 162.25,-1188.8 168.25,-1188.8 174.25,-1194.8 174.25,-1200.8 174.25,-1200.8 174.25,-1227.2 174.25,-1227.2 174.25,-1233.2 168.25,-1239.2 162.25,-1239.2"/>
<text xml:space="preserve" text-anchor="middle" x="130.46" y="-1223" font-family="Menlo" font-size="10.00">domain/entities</text>
<text xml:space="preserve" text-anchor="middle" x="130.46" y="-1211" font-family="Menlo" font-size="10.00">value&#45;objects</text>
<text xml:space="preserve" text-anchor="middle" x="130.46" y="-1199" font-family="Menlo" font-size="10.00">message&#45;text.ts</text>
</g>
<!-- packages_message_proxy_src_index_test_ts -->
<g id="node29" class="node">
<title>packages_message_proxy_src_index_test_ts</title>
<path fill="#ffffff" stroke="#94a3b8" d="M161.69,-1338.2C161.69,-1338.2 99.24,-1338.2 99.24,-1338.2 93.24,-1338.2 87.24,-1332.2 87.24,-1326.2 87.24,-1326.2 87.24,-1299.8 87.24,-1299.8 87.24,-1293.8 93.24,-1287.8 99.24,-1287.8 99.24,-1287.8 161.69,-1287.8 161.69,-1287.8 167.69,-1287.8 173.69,-1293.8 173.69,-1299.8 173.69,-1299.8 173.69,-1326.2 173.69,-1326.2 173.69,-1332.2 167.69,-1338.2 161.69,-1338.2"/>
<text xml:space="preserve" text-anchor="middle" x="130.46" y="-1322" font-family="Menlo" font-size="10.00">message&#45;proxy</text>
<text xml:space="preserve" text-anchor="middle" x="130.46" y="-1310" font-family="Menlo" font-size="10.00">index.test.ts</text>
<text xml:space="preserve" text-anchor="middle" x="130.46" y="-1298" font-family="Menlo" font-size="10.00">index.test.ts</text>
</g>
<!-- packages_web_src_App_tsx -->
<g id="node30" class="node">
<title>packages_web_src_App_tsx</title>
<path fill="#ffffff" stroke="#94a3b8" d="M402.94,-1437.2C402.94,-1437.2 369.63,-1437.2 369.63,-1437.2 363.63,-1437.2 357.63,-1431.2 357.63,-1425.2 357.63,-1425.2 357.63,-1398.8 357.63,-1398.8 357.63,-1392.8 363.63,-1386.8 369.63,-1386.8 369.63,-1386.8 402.94,-1386.8 402.94,-1386.8 408.94,-1386.8 414.94,-1392.8 414.94,-1398.8 414.94,-1398.8 414.94,-1425.2 414.94,-1425.2 414.94,-1431.2 408.94,-1437.2 402.94,-1437.2"/>
<text xml:space="preserve" text-anchor="middle" x="386.29" y="-1421" font-family="Menlo" font-size="10.00">web</text>
<text xml:space="preserve" text-anchor="middle" x="386.29" y="-1409" font-family="Menlo" font-size="10.00">App.tsx</text>
<text xml:space="preserve" text-anchor="middle" x="386.29" y="-1397" font-family="Menlo" font-size="10.00">App.tsx</text>
</g>
<!-- packages_web_src_main_tsx -->
<g id="node31" class="node">
<title>packages_web_src_main_tsx</title>
<path fill="#ffffff" stroke="#94a3b8" d="M148.51,-1437.2C148.51,-1437.2 112.42,-1437.2 112.42,-1437.2 106.42,-1437.2 100.42,-1431.2 100.42,-1425.2 100.42,-1425.2 100.42,-1398.8 100.42,-1398.8 100.42,-1392.8 106.42,-1386.8 112.42,-1386.8 112.42,-1386.8 148.51,-1386.8 148.51,-1386.8 154.51,-1386.8 160.51,-1392.8 160.51,-1398.8 160.51,-1398.8 160.51,-1425.2 160.51,-1425.2 160.51,-1431.2 154.51,-1437.2 148.51,-1437.2"/>
<text xml:space="preserve" text-anchor="middle" x="130.46" y="-1421" font-family="Menlo" font-size="10.00">web</text>
<text xml:space="preserve" text-anchor="middle" x="130.46" y="-1409" font-family="Menlo" font-size="10.00">main.tsx</text>
<text xml:space="preserve" text-anchor="middle" x="130.46" y="-1397" font-family="Menlo" font-size="10.00">main.tsx</text>
</g>
<!-- packages_web_src_main_tsx&#45;&gt;packages_web_src_App_tsx -->
<g id="edge21" class="edge">
<title>packages_web_src_main_tsx&#45;&gt;packages_web_src_App_tsx</title>
<path fill="none" stroke="#64748b" stroke-width="1.2" d="M160.81,-1412C160.81,-1412 348.34,-1412 348.34,-1412"/>
<polygon fill="#64748b" stroke="#64748b" stroke-width="1.2" points="348.34,-1414.45 355.34,-1412 348.34,-1409.55 348.34,-1414.45"/>
</g>
<!-- packages_web_vite_config_ts -->
<g id="node32" class="node">
<title>packages_web_vite_config_ts</title>
<path fill="#ffffff" stroke="#94a3b8" d="M157.53,-1512.2C157.53,-1512.2 103.4,-1512.2 103.4,-1512.2 97.4,-1512.2 91.4,-1506.2 91.4,-1500.2 91.4,-1500.2 91.4,-1473.8 91.4,-1473.8 91.4,-1467.8 97.4,-1461.8 103.4,-1461.8 103.4,-1461.8 157.53,-1461.8 157.53,-1461.8 163.53,-1461.8 169.53,-1467.8 169.53,-1473.8 169.53,-1473.8 169.53,-1500.2 169.53,-1500.2 169.53,-1506.2 163.53,-1512.2 157.53,-1512.2"/>
<text xml:space="preserve" text-anchor="middle" x="130.46" y="-1496" font-family="Menlo" font-size="10.00">web</text>
<text xml:space="preserve" text-anchor="middle" x="130.46" y="-1484" font-family="Menlo" font-size="10.00">vite.config.ts</text>
<text xml:space="preserve" text-anchor="middle" x="130.46" y="-1472" font-family="Menlo" font-size="10.00">vite.config.ts</text>
</g>
<!-- scripts_generate_import_graph_ts -->
<g id="node33" class="node">
<title>scripts_generate_import_graph_ts</title>
<path fill="#ffffff" stroke="#94a3b8" d="M180.99,-1611.2C180.99,-1611.2 79.94,-1611.2 79.94,-1611.2 73.94,-1611.2 67.94,-1605.2 67.94,-1599.2 67.94,-1599.2 67.94,-1572.8 67.94,-1572.8 67.94,-1566.8 73.94,-1560.8 79.94,-1560.8 79.94,-1560.8 180.99,-1560.8 180.99,-1560.8 186.99,-1560.8 192.99,-1566.8 192.99,-1572.8 192.99,-1572.8 192.99,-1599.2 192.99,-1599.2 192.99,-1605.2 186.99,-1611.2 180.99,-1611.2"/>
<text xml:space="preserve" text-anchor="middle" x="130.46" y="-1595" font-family="Menlo" font-size="10.00">scripts</text>
<text xml:space="preserve" text-anchor="middle" x="130.46" y="-1583" font-family="Menlo" font-size="10.00">generate&#45;import&#45;graph.ts</text>
<text xml:space="preserve" text-anchor="middle" x="130.46" y="-1571" font-family="Menlo" font-size="10.00">generate&#45;import&#45;graph.ts</text>
</g>
<!-- scripts_upload_r2_ts -->
<g id="node34" class="node">
<title>scripts_upload_r2_ts</title>
<path fill="#ffffff" stroke="#94a3b8" d="M155.45,-1686.2C155.45,-1686.2 105.48,-1686.2 105.48,-1686.2 99.48,-1686.2 93.48,-1680.2 93.48,-1674.2 93.48,-1674.2 93.48,-1647.8 93.48,-1647.8 93.48,-1641.8 99.48,-1635.8 105.48,-1635.8 105.48,-1635.8 155.45,-1635.8 155.45,-1635.8 161.45,-1635.8 167.45,-1641.8 167.45,-1647.8 167.45,-1647.8 167.45,-1674.2 167.45,-1674.2 167.45,-1680.2 161.45,-1686.2 155.45,-1686.2"/>
<text xml:space="preserve" text-anchor="middle" x="130.46" y="-1670" font-family="Menlo" font-size="10.00">scripts</text>
<text xml:space="preserve" text-anchor="middle" x="130.46" y="-1658" font-family="Menlo" font-size="10.00">upload&#45;r2.ts</text>
<text xml:space="preserve" text-anchor="middle" x="130.46" y="-1646" font-family="Menlo" font-size="10.00">upload&#45;r2.ts</text>
</g>
</g>
</svg>
